<?xml version="1.0" encoding="utf-8"?>
<!-- Generator: Adobe Illustrator 15.1.0, SVG Export Plug-In . SVG Version: 6.00 Build 0)  -->
<!DOCTYPE svg PUBLIC "-//W3C//DTD SVG 1.1//EN" "http://www.w3.org/Graphics/SVG/1.1/DTD/svg11.dtd">
<svg version="1.1" id="Слой_1" xmlns="http://www.w3.org/2000/svg" xmlns:xlink="http://www.w3.org/1999/xlink" x="0px" y="0px"
	 width="180px" height="62px" viewBox="0 0 180 62" enable-background="new 0 0 180 62" xml:space="preserve">
<g>
	<g>
		<path fill="#A3A8D4" d="M21.006,10.539c11.337,0,20.58,9.243,20.58,20.617c0,11.375-9.243,20.618-20.58,20.618
			c-11.333,0-20.614-9.243-20.614-20.618C0.392,19.782,9.673,10.539,21.006,10.539L21.006,10.539L21.006,10.539z"/>
		<path fill="#FFFFFF" d="M3.129,41.451c0.536-0.174,2.429-0.343,2.995-0.413c0.645-0.081,1.322-0.23,1.994-0.195
			C8.821,40.88,9.506,40.966,10.213,41c1.201,0.061,2.597,0.188,3.751-0.202c0.489-0.168,0.854-0.646,1.388-0.66
			c0.425-0.012,0.938,0.224,1.3,0.428c0.567,0.323,0.688,0.999,1.201,1.384c0.503,0.378,1.29,0.521,1.898,0.551
			c1.277,0.058,2.706-0.557,3.697-1.31c0.585-0.444,1.287-1.296,2.12-1.096c0.8,0.191,1.208,1.224,1.759,1.751
			c0.491,0.47,1.166,0.84,1.793,1.092c0.449,0.18,0.952,0.42,1.415,0.55c0.807,0.229,1.674,0.49,2.522,0.431
			c0.329-0.023,0.67-0.087,0.989-0.153c0.614-0.126,2.179-0.113,2.822-0.111c0.427,0-2.994,3.137-3.907,3.766
			c-3.281,2.256-7.12,4.453-11.099,4.401c-3.672-0.05-7.321-1.087-10.515-2.893c-1.5-0.848-3.705-2.095-4.951-3.286
			C5.806,45.077,3.057,41.658,3.129,41.451z"/>
		<path fill="#FFE5CA" d="M15.989,26.487c0.878-0.895,2.298-1.195,3.499-1.582c0.89-0.285,1.785-0.562,2.691-0.79
			c0.689-0.173,1.34-0.242,2.001,0.106c0.659,0.347,1.142,0.961,1.718,1.42c0.698,0.554,1.611,0.932,1.929,1.805
			c0.233,0.643,0.299,1.346,0.528,1.995c0.25,0.709,0.197,1.785,0.123,2.535c-0.04,0.408-0.146,0.602-0.384,0.933
			c-0.282,0.389-0.413,0.726-0.575,1.181c-0.259,0.727-0.631,1.303-0.76,2.07c-0.068,0.409-0.076,0.825-0.152,1.238
			c-0.106,0.566-0.318,0.931-0.654,1.381c-0.31,0.422-0.384,0.583-0.838,0.862c-0.452,0.277-0.851,0.635-1.256,0.977
			c-0.362,0.304-0.62,0.69-0.947,1.023c-0.379,0.386-0.792,0.68-1.304,0.781c-0.503,0.1-1.061,0.048-1.579,0.072
			c-0.701,0.037-1.667,0.072-2.233-0.42c-0.279-0.241-0.388-0.626-0.683-0.848c-0.378-0.281-0.849-0.378-1.245-0.626
			c-0.373-0.234-0.676-0.629-0.946-0.972l-0.549-1.728c-0.188-0.596,0.144-1.178-0.131-1.807c-0.286-0.651-0.054-1.262,0.212-1.892
			c0.262-0.623,0.432-1.436,0.395-2.111c-0.016-0.289-0.154-0.529-0.224-0.801c-0.072-0.274-0.024-0.556-0.113-0.822
			c-0.093-0.282-0.24-0.418-0.24-0.759c0-0.399,0.119-1.102,0.539-1.265c0.29-0.111,0.253,0.008,0.381-0.271
			c0.073-0.162,0.066-0.369,0.117-0.536C15.453,27.167,15.69,26.793,15.989,26.487z"/>
		<g>
			<g>
				<path fill="#FFFFFF" d="M17.941,29.951c0.756,0.252,1.189,0.864,1.009,1.332c-0.179,0.435-0.936,0.616-1.693,0.362
					c-0.755-0.253-1.225-0.865-1.044-1.332C16.43,29.88,17.187,29.698,17.941,29.951L17.941,29.951L17.941,29.951L17.941,29.951
					L17.941,29.951z"/>
				<path fill="#FFFFFF" d="M22.826,30.706c-0.827,0.07-1.369,0.609-1.151,1.154c0.214,0.539,1.043,0.934,1.872,0.824
					c0.864-0.072,1.367-0.574,1.151-1.114C24.52,30.993,23.654,30.633,22.826,30.706L22.826,30.706L22.826,30.706L22.826,30.706
					L22.826,30.706z"/>
				<path fill="#FFFFFF" d="M18.88,28.972c0.215,0.038,0.36,0.145,0.54,0.252l0,0l-0.252,0.25l0,0c0,0-0.324-0.105-0.288-0.071l0,0
					V28.972L18.88,28.972L18.88,28.972L18.88,28.972z"/>
				<path fill="#FFFFFF" d="M23.894,29.256l0.011,0.407l0.282,0.225l0.262-0.391C24.269,29.39,24.111,29.291,23.894,29.256
					L23.894,29.256L23.894,29.256z"/>
				<path fill="#FFFFFF" d="M12.289,22.501c2.334-0.918,5.695-1.462,8.217-1.537c2.372-2.026,8.064-2.574,8.726-2.899
					c-2.99,1.466-6.156,2.6-8.49,4.549C19.097,22.271,15.618,22.079,12.289,22.501L12.289,22.501L12.289,22.501L12.289,22.501
					L12.289,22.501z"/>
				<g>
					<path fill="#231F20" d="M28.102,50.218c0,0,0.993-5.855,1.065-6.858c0.45,0.146,0.952,0.342,1.76,0.69
						c0.649,0.621,0.979,1.154,2.744,0.564l1.226-0.58c0.542-0.174,0.95-0.33,1.435-0.369c0.446-0.035,1.105-0.115,1.067-0.291
						c-0.093-0.257-3.61-0.048-3.61-0.048c-0.348,0-0.705-0.145-1.326-0.111c-2.184,0.269-1.66-0.383-3.957-0.864
						c-0.108-0.039-0.217-0.079-0.324-0.118c-0.017-0.017-0.039-0.031-0.051-0.046c-0.028-0.034-0.036-0.084-0.055-0.126
						c-0.08-0.226-0.164-0.452-0.26-0.67c-0.078-0.2-0.164-0.395-0.227-0.599c-0.063-0.214-0.138-0.42-0.216-0.608
						c-0.074-0.183-0.07-0.291-0.026-0.391c0.35-0.242,0.702-0.906,0.578-2.494c-0.173-2.214,0.409-3.231,0.413-3.564
						c0.124-0.354,0.948,0.226,0.762-1.315c-0.042-0.352,0.313-0.277,0.591-0.97c0.347-0.796,0.436-1.536,0.173-1.799
						c-0.28-0.192-0.473-0.087-0.554-0.07c0.125-0.248,0.257-1.201,0.303-1.97c0.021,0.01,0.047,0.02,0.068,0.029
						c0.102,0.105,0.247,0.254,0.311,0.252c0.108-0.006,0.109-0.234,0.081-0.461c0.007-0.017,0.017-0.019,0.02-0.056
						c0.002-0.023-0.017-0.093-0.035-0.173c-0.007-0.015-0.012-0.031-0.019-0.046c-0.09-0.296-0.275-0.79-0.365-0.94
						c-0.328-0.832-0.811-1.71-2.336-2.622l-0.279-3.36c0,0,2.542-1.021,7.617-2.146c-2.986-0.563-8.047-1.332-11.252-1.801
						c-4.947,2.287-10.287,4.568-16.17,8.966c0.175-0.063,0.339-0.137,0.508-0.207c0.001,0.029,0.004,0.063,0.009,0.116
						c0.016,0.242,0.052,0.573,0.153,0.779c0.219,0.449,0.395-0.173,0.434-0.438c0.036-0.246,0.075-0.5,0.062-0.752
						c0.116-0.058,0.231-0.114,0.346-0.174l5.529-1.536c0.594,0.685,1.474,2.502,1.446,3.149c-0.034,0.136,0.139,0.279,0.379,0.136
						c1.446-0.907,3.843-1.798,7.513-2.109c0,0,0.02,0.013,0.055,0.036c0.011-0.002,0.024,0.018,0.101,0.054
						c0.079,0.035,0.148,0.097,0.217,0.167c0.037,0.027,0.08,0.06,0.122,0.091c0.155,0.159,0.339,0.323,0.489,0.47
						c0.164,0.163,0.262,0.308,0.344,0.457c0.023,0.043,0.051,0.084,0.071,0.128c0.106,0.219,0.195,0.458,0.379,0.784
						c0.156,0.272,0.305,0.604,0.45,0.914c0.056,0.121,0.111,0.246,0.182,0.34c0.159-0.021,0.243-0.162,0.258-0.342
						c0,0,0.017,0,0.038,0.002c0.057,0.007,0.173,0.04,0.295,0.195c0.015,0.021,0.031,0.049,0.045,0.072
						c0.033,0.052,0.066,0.114,0.097,0.184c0.051,0.118,0.101,0.256,0.14,0.442c0.042,0.199,0.069,0.379,0.092,0.552
						c0.022,0.172,0.029,0.331,0.03,0.484c0.001,0.101-0.003,0.203-0.013,0.297c-0.033,0.302-0.113,0.577-0.274,0.833
						c-0.04,0.064-0.102,0.118-0.156,0.174c-0.099,0.101-0.208,0.194-0.333,0.273c-0.254,0.165-0.52,0.29-0.652,0.363
						c0,0-0.692,0.023-0.694,0.023c-0.105-0.174-0.208-0.277-0.35-0.418c0.174-0.069,0.453-0.414,0.66-0.519l-0.173-0.313
						l-0.28,0.385c-0.066,0.063-0.379,0.101-0.379,0.101s-0.104,0.068-0.208,0.141c-0.347-0.19-0.842-0.29-1.324-0.25
						c-0.047-0.19-0.254-0.246-0.461-0.246c0.039-0.058,0.07-0.109,0.056-0.093c0.034-0.038,0.344-0.071,0.344,0
						c0-0.071,0.035-0.346,0-0.451c0-0.07,0.141-0.171,0.348-0.243c-0.139,0.968,0.865,1.283,1.385,0.623
						c0.069-0.141,0-0.275-0.104-0.45c0,0,0,0,0,0.035l-0.243,0.378c-0.016-0.002-0.071-0.045-0.071-0.045
						c-0.099-0.066-0.256-0.178-0.217-0.192l-0.009-0.37c-0.016-0.012-0.188-0.084-0.293-0.149c0.036-0.037,0.07-0.037,0.07-0.037
						c0.399,0.037,0.813,0.196,1.121,0.457c0.102,0.089,0.176,0.203,0.285,0.286c0.209,0.155,0.53,0.327,0.785,0.389
						c0.121,0.031,0.141-0.151-0.01-0.267c-0.18-0.153,0.139-0.078,0.313,0.015c-0.095-0.126-0.223-0.323-0.245-0.323
						c-0.137,0-0.517-0.244-0.517-0.208c0-0.036,0-0.381,0-0.381l-0.834-0.312l-0.519,0.035l-0.38,0.035c0,0-0.193,0.017-0.158-0.05
						c0-0.07,0.248-0.116,0.231-0.182c0.15-0.031-0.361,0.01-0.816,0.159c-0.065,0.027-0.125,0.039-0.192,0.072
						c-0.449,0.242,0.348-0.554,0.97-0.554c0.402,0,0.618,0.021,0.791,0.079c0.125,0.012,0.253,0.031,0.319,0.049
						c0.077,0.021,0.175,0.055,0.271,0.091c0.045,0.012,0.104,0.038,0.15,0.05c0.072,0.021,0.157,0.054,0.233,0.078
						c0.028,0.009,0.057,0.019,0.083,0.029c0.021,0.006,0.042,0.012,0.064,0.021c0.059,0.02,0.113,0.035,0.195,0.056
						c0.051-0.149,0.1-0.343,0.053-0.453c-0.009-0.018-0.019-0.035-0.027-0.054c-0.002-0.041-0.009-0.083-0.014-0.126
						c-0.002-0.011-0.004-0.023-0.011-0.054c-0.017-0.083-0.045-0.163-0.084-0.242c-0.053-0.105-0.12-0.207-0.227-0.287
						l-0.034,0.066c0,0-0.077,0.145-0.084,0.159c-0.008-0.01-0.015-0.016-0.022-0.025c-0.077-0.033-0.156-0.06-0.231-0.083
						c-0.021-0.045-0.043-0.095-0.063-0.116c-0.053-0.064-0.113-0.056-0.164-0.048c-0.011,0-0.02,0-0.03,0.002
						c-0.029,0-0.054-0.006-0.076-0.039c-0.05-0.102-0.127-0.188-0.127-0.188c-0.509,0.14-0.64,0.163-1.132,0.198
						c-0.149,0.01-0.327,0.022-0.562,0.039c0.057-0.122,0.155-0.437,0.111-0.509c-0.08,0.058-0.367,0.194-0.606,0.335
						c-0.133,0.075-0.252,0.151-0.311,0.215c-0.2,0.224-0.337,0.507-0.406,0.807c-0.012,0.049-0.028,0.097-0.036,0.148
						c-0.009,0.062-0.006,0.124-0.008,0.188c-0.001,0.052-0.01,0.101-0.006,0.153c-0.08,0.341-0.076,0.726-0.141,1.069
						c-0.013,0.063-0.042,0.116-0.061,0.176c-0.022,0.075-0.039,0.155-0.078,0.223c-0.046-0.045-0.11-0.097-0.178-0.148
						c-0.067-0.052-0.136-0.101-0.215-0.143c-0.571-0.358-1.269-0.414-1.905,0.564c-0.208-0.345-0.623-0.69-1.145-0.864
						c-0.654-0.242-1.312-0.208-1.728,0.068c-0.105-0.032-0.207-0.068-0.244-0.134c-0.255-0.461-0.835-1.731-1.548-1.249
						c-0.4,0.271-0.477,1.952-0.073,2.212c0.12,0.079-0.278,1.211,0.369,1.147c0.052-0.333,0.085-0.564,0.014-0.899
						c-0.068-0.323-0.354-0.585-0.41-0.912c-0.069-0.412,0.198-1.642,0.774-1.013c0.216,0.236,0.295,0.538,0.42,0.82
						c0.01,0.023,0.282,0.6,0.315,0.511c-0.208,0.589,0.345,1.35,1.248,1.663c0.795,0.276,1.558,0.174,1.937-0.209
						c-0.035,0.383,0.037,1.284,0.037,1.176c0.05-0.053,0.205-1.486,0.344-1.935c0.035-0.141,0.164-0.552,0.631-0.701
						c0.843-0.105,1.19,0.682,1.245,1.079c-0.018,0.085-0.035,0.185-0.058,0.296c-0.17,0.662-0.416,1.108-1.057,1.75
						c0.554,0,0.45,0.38,0.416,0.521c-0.371,0.522-1.387,1.046-1.806-0.337l-0.028-0.496l-0.276-0.141
						c-0.14,0.313,0.309,1.662,0.831,1.871c0.448,0.174,1.383-0.141,1.798-0.448c0,0,1.385-0.557,1.523-0.796
						c0.206-0.284-0.025-0.451-0.271-0.563c-0.006-0.054-0.012-0.104-0.017-0.161c0.377,0.157,0.815,0.229,1.257,0.17
						c0.797-0.072,1.351-0.521,1.424-1.04c0.067-0.002,0.173-0.038,0.524-0.178c0.154-0.064,0.332-0.153,0.521-0.251l0.104-0.056
						c0,0,0.15,0.817-0.182,1.539c-0.087,0.188-0.222,0.425-0.415,0.632c-0.379,1.045-0.351,2.107-0.464,3.122
						c-0.057,0.507-0.154,1.001-0.359,1.473c-0.106,0.246-0.234,0.488-0.41,0.72c-0.059,0.079-0.124,0.152-0.2,0.246
						c-0.031,0.039-0.063,0.077-0.097,0.113c-0.095,0.102-0.195,0.196-0.312,0.273c-0.242,0.157-0.47,0.294-0.679,0.494
						c-0.101,0.097-0.188,0.205-0.28,0.309c-0.023,0.026-0.048,0.051-0.071,0.078c-0.058,0.066-0.12,0.126-0.19,0.209
						c-0.179,0.21-0.357,0.42-0.559,0.61c-0.25,0.234-0.444,0.446-0.742,0.601c-0.012,0.007-0.018,0.015-0.031,0.021
						c-0.028,0.015-0.071,0.031-0.116,0.051c-0.991,0.35-2.001,0.443-2.948-0.104c-0.473-0.274-0.794-0.752-1.197-1.112
						c0.038,0.034-0.031,0.213,0.033,0.538c0.036,0.182,0.101,0.355,0.191,0.517c0.177,0.316,0.452,0.566,0.774,0.729
						c0.343,0.169,0.73,0.233,1.111,0.21c0.533-0.032,1.025-0.243,1.565-0.217c0.519,0.023,1.192-0.087,1.682-0.272
						c0.203-0.076,0.382-0.163,0.564-0.252c0.388-0.222,0.9-0.555,1.168-0.899c0.024-0.031,0.056-0.063,0.075-0.094
						c0.097-0.15,0.165-0.182,0.212-0.146c0.066,0.05,0.084,0.237,0.071,0.442c-0.018,0.254-0.085,0.531-0.198,0.612
						c-0.097,0.063-0.215,0.128-0.341,0.189c-0.064,0.033-0.133,0.064-0.234,0.112c-0.018,0.008-0.037,0.015-0.056,0.022
						c-0.187,0.079-0.386,0.153-0.589,0.222c-0.52,0.184-0.455,0.217-1.011,0.316c-0.237,0.043,0.168,0.271,0.377,0.289
						c0,0,0,0,0.001,0c0.145-0.017,0.305-0.037,0.483-0.063c0.125-0.018,0.246-0.036,0.364-0.058c0.902-0.148,1.422-0.3,2.253-0.753
						l0.003,0.005c0,0,0.063-0.039,0.15-0.079c0.212-0.099,0.581-0.204,0.631,0.226c0.051,0.426,0.25,0.271,0.398,0.36
						c0.18,0.107,0.116,0.256-0.092,0.502c-0.145,0.149-0.296,0.292-0.451,0.432c-0.183,0.166-0.372,0.321-0.566,0.47
						c-0.739,0.564-1.543,0.966-2.348,1.028c-0.099,0.006-0.2,0.004-0.3,0c-0.004,0-0.01,0-0.016,0
						c-0.028-0.017-0.055-0.037-0.066-0.051c-0.116-0.126-0.132-0.297-0.174-0.41c-0.04-0.1-0.08-0.259-0.134-0.403
						c-0.015-0.031-0.022-0.096-0.122-0.195c0,0-0.2-0.148-0.301,0.12c-0.032,0.083-0.045,0.172-0.063,0.257
						c-0.026,0.126-0.181,1.442-0.826,3.296c-0.065,0.186,0.481-0.221,0.596-0.364c0.198-0.248,0.338-0.326,0.595-0.679
						c0.166-0.225,0.3-0.4,0.463-0.628c0.049-0.066,0.149-0.199,0.216-0.314c0.042-0.015,0.075-0.021,0.116-0.03
						c0.122-0.038,0.236-0.063,0.345-0.092c1.577-0.215,2.652-1.031,3.623-2.067c0.142-0.153,0.284-0.309,0.422-0.468
						c0.034-0.039,0.067-0.08,0.102-0.12c-0.02,0.04-0.029,0.086-0.054,0.12c-0.225,0.727-0.619,2.207-1.647,4.497
						c-0.629,1.413-1.301,2.85-1.861,3.954c0.49-0.063,1.011-0.259,1.491-0.355c0.252-0.629,0.55-1.599,0.844-2.283
						c0.749-2.014,1.168-3.819,1.646-5.774c0.206,0.021,0.406,0.056,0.597,0.102c-0.599,2.739-1.493,5.719-2.306,7.742
						c0.534-0.132,1.768-0.686,1.768-0.686L28.102,50.218z M18.892,31.273c-0.175,0.416-0.903,0.592-1.625,0.35
						c-0.729-0.244-1.179-0.833-1.005-1.279c0.207-0.418,0.935-0.592,1.662-0.348C18.648,30.236,19.063,30.825,18.892,31.273z
						 M23.528,32.661c-0.796,0.104-1.593-0.275-1.799-0.796c-0.206-0.521,0.312-1.041,1.106-1.108
						c0.797-0.07,1.629,0.277,1.802,0.829C24.843,32.107,24.36,32.591,23.528,32.661z M20.713,22.533
						c-1.486-0.312-4.593-0.57-7.603-0.189c2.111-0.829,5.154-0.5,7.437-0.571c3.077-2.181,5.757-3.075,7.898-3.443
						C25.641,19.436,22.826,20.768,20.713,22.533z"/>
					<path fill="#231F20" d="M18.512,46.002c0.275,0.215,0.55,0.62,0.967,0.972c0.091,0.076,0.187,0.149,0.294,0.217
						c0.162,0.104,0.333,0.2,0.543,0.271c-0.199-0.463-0.443-0.995-0.528-1.191c-0.464-1.059-0.785-1.703-1.109-2.25
						c-0.201-0.339-0.513-1.009-0.692-1.017c-0.185-0.009-0.564,0.38-0.731,0.505c-0.333,0.25-0.59,0.461-0.927,0.702
						c-0.495,0.36-0.994,0.709-1.5,1.053c-0.363,0.246-0.739,0.476-1.097,0.729c-0.063,0.046-0.248,0.135-0.164,0.211
						c0.17,0.155,1.944-0.078,2.294-0.319c-0.104,0.069,0.175,0.704,0.175,0.704c-0.519,1.247-1.49,2.202-2.08,2.655l-0.663,0.8
						c1.146,0.501,2.519,0.925,3.765,1.208c0.104-1.047,0.344-3.507,0.483-4.324C18.065,46.885,18.653,46.107,18.512,46.002z"/>
					<path fill="#231F20" d="M12.841,41.255c0.151-0.009,0.532-0.055,0.922-0.185c0.021-0.006,0.041-0.01,0.062-0.019
						c0.065-0.022,0.127-0.054,0.19-0.081c-0.194,0.369-0.368,0.745-0.517,1.13c-0.166,0.428-0.318,0.868-0.46,1.336
						c-0.077,0.256-0.156,0.53-0.233,0.806c-0.047,0.168-0.093,0.323-0.142,0.499c-0.194,0.694-0.029,1.416,0.026,1.238
						c0.271-0.875,0.636-1.888,1.038-2.837c0.008-0.021,0.016-0.039,0.025-0.059c0.482-1.133,1.013-2.142,1.512-2.694
						c0.016,0.011,0.03,0.023,0.048,0.031c0.012,0.031,0.024,0.063,0.038,0.092c0.099,0.217,0.227,0.4,0.407,0.572
						c0.099,0.093,0.177,0.219,0.289,0.298c0.127,0.087,0.296,0.102,0.422,0.191c0.103,0.077,0.24,0.185,0.383,0.188
						c0.038-0.154-0.18-0.537-0.308-0.628c-0.26-0.184-0.366-0.304-0.466-0.501c0.186,0.015,0.379,0.021,0.6-0.012
						c0.482-0.07,0.173-0.104,0.035-0.209c-0.503-0.481-0.567-0.448-1.123-0.518c-0.54-0.134-0.58-0.591-0.744-0.954
						c-0.306-0.675-0.201-1.621-0.401-2.75c-0.466-2.222,1.219-2.647,0.329-4.326c0.07,1.663-0.951,1.89-1.003,3.459
						c0,0,0.465,1.693,0.434,1.893c-0.053,0.365-0.072,0.654-0.017,1.385c0.007,0.097,0.061,0.399,0.192,0.738
						c0,0,0.037,0.124,0.103,0.279c0.044,0.103,0.101,0.217,0.17,0.324c0.046,0.07,0.104,0.135,0.144,0.207
						c-0.139,0.097-0.533,0.265-0.831,0.331c-0.34,0.076-1.01,0.196-1.507,0.222c-0.545,0.028-1.088,0.078-1.63,0.047
						c-1.102-0.06-2.292-0.318-3.616-0.318c-1.055,0-3.41,0.461-4.157,0.794c0.14,0.246,0.289,0.483,0.438,0.722
						c1.125-0.535,4.488-0.955,6.287-0.887c-0.451,0.363-1.367,1.807-2.37,3.451c-0.112,0.198-0.542,1.143-0.667,1.331
						c0.214,0.224,0.434,0.436,0.657,0.649c0.723-1.493,2.428-4.977,2.659-5.428c0.131,0.008,0.271,0.01,0.392,0.021
						c0.158,0.015,0.317,0.031,0.473,0.05c-0.58,0.453-1.769,2.861-3.065,5.775c0.283,0.252,0.566,0.502,0.862,0.74
						c0.246-1.938,2.159-5.755,2.451-6.491C11.726,41.224,12.283,41.287,12.841,41.255z"/>
					<g>
						<path fill="#231F20" d="M21.833,31.518c0.313,1.348,2.388,0.901,2.319,0.761C23.391,32.278,22.768,32.487,21.833,31.518z"/>
						<path fill="#231F20" d="M13.713,44.437c-0.208,0.279-0.225,0.641-0.053,0.712c0.139,0.102,0.518,0.021,0.727-0.257
							c0.21-0.275,0.207-0.645,0.069-0.715C14.284,44.073,13.919,44.16,13.713,44.437z"/>
						<path fill="#231F20" d="M16.495,36.826c-0.104-0.586-0.304-0.875,0.597-1.951c-0.139-0.067-0.973,0.486-1.213,1.698
							C16.396,37.299,16.57,36.952,16.495,36.826z"/>
						<path fill="#231F20" d="M15.378,38.354c0.134,0.238,0.302,0.461,0.501,0.647c0.113,0.101,0.379,0.344,0.572,0.361
							l-0.012,0.007c0.02,0.006,0.039,0.015,0.056,0.02c0.001,0,0.006-0.01,0.012-0.02c0.006,0,0.014,0.004,0.018,0.002
							c0.004-0.017,0.004-0.031,0.004-0.048l-0.007,0.004c-0.039-0.021-0.074-0.052-0.113-0.076c0,0,0-0.002,0-0.005l-0.003,0.003
							c-0.01-0.006-0.017-0.011-0.022-0.017c-0.067-0.039-0.129-0.087-0.188-0.141c-0.049-0.044-0.094-0.093-0.14-0.145
							c-0.038-0.042-0.076-0.081-0.111-0.128c-0.017-0.021-0.032-0.046-0.046-0.066c-0.404-0.588-0.634-1.485-0.633-2.237
							c0-0.251,0.026-0.482,0.077-0.683c0.042-0.174,0.09-0.346,0.216-0.529l0.105-0.132c0,0-0.004,0-0.007,0l0.018-0.02
							c0,0-0.067-0.008-0.081,0.005c-0.467,0.322-0.662,0.905-0.662,1.534C14.933,37.268,15.091,37.852,15.378,38.354z"/>
						<path fill="#231F20" d="M15.039,29.692c-0.041-0.04-0.077-0.067-0.109-0.083c-0.205-0.101-0.229,0.25-0.174,0.435
							c0.069,0.233,0.343,0.581,0.328,0.641C15.172,30.325,15.233,29.878,15.039,29.692z"/>
						<path fill="#231F20" d="M26.184,29.987c-0.009-0.005-0.013-0.01-0.022-0.014c0.008,0.01,0.013,0.014,0.022,0.024V29.987z"/>
						<path fill="#231F20" d="M16.396,30.344c0.141,1.416,2.252,1.242,2.219,1.105C17.853,31.344,17.195,31.449,16.396,30.344z"/>
						<path fill="#231F20" d="M23.97,34.665c0.241,0.45-0.374,3.05-0.128,2.354c0.344-1.105,0.414-0.932,0.656-1.695
							c0.035-0.136,0.242-0.517,0-0.829c0.037-0.074-0.174-0.287-0.579-0.448c-0.603-0.083-0.93-0.233-1.171-0.133
							c-0.078,0.033-0.127,0.056-0.162,0.075C23.219,34.543,23.741,34.245,23.97,34.665z"/>
						<path fill="#231F20" d="M18.787,39.997c-0.004-0.015-0.009-0.029-0.019-0.041c-0.054,0.211,0.159,0.718-0.113,0.827
							c-0.211,0.084-0.553-0.248-0.66-0.401c-0.152-0.211-0.265-0.448-0.373-0.683c-0.095-0.207-0.316-0.548-0.324-0.772
							c0.035,1.07,0.242,2.04,0.901,2.456c0.214,0.056,0.331,0,0.521-0.089c0.155-0.072,0.251-0.087,0.379,0.056
							c0.399,0.444,0.988,0.357,1.382-0.037c0.348-0.45,0.969-0.761,0.796-0.69C20.206,41,19.1,41,18.787,39.997z"/>
						<path fill="#231F20" d="M20.656,37.613c-0.554,0-1.038-0.176-1.592,0.031c-0.172,0.692-0.103,1.249,0.139,1.834
							C19.236,38.44,19.408,37.855,20.656,37.613z"/>
						<path fill="#231F20" d="M18.44,32.831c0.037,0-0.518-0.24,0.276-0.827c-2.456,0.587-2.422,2.663-2.353,2.942
							C16.467,35.152,16.537,33.316,18.44,32.831z"/>
						<path fill="#231F20" d="M13.795,27.295c0.057-0.017,0.115-0.037,0.169-0.049c-0.214,0.327-0.398,0.707-0.381,1.125
							c0.002,0.042-0.006,0.083,0,0.124c0.015,0.002,0.022-0.008,0.036-0.008c0.188,0.004,0.329-0.167,0.48-0.329
							c0.088-0.096,0.182-0.176,0.296-0.209c0.01-0.002,0.016-0.012,0.027-0.014c0.104-0.021,0.19-0.002,0.27,0.027
							c0.061,0.023,0.119,0.047,0.175,0.081c0.08,0.047,0.159,0.095,0.252,0.122c0.084,0.025,0.104-0.107,0.117-0.283
							c0.015-0.18,0.023-0.405,0.088-0.557c0.167-0.382,0.367-0.417,0.461-0.664c-0.315-0.041-0.348-0.391-0.361-0.653
							c0-0.021-0.001-0.043-0.003-0.062c-0.004-0.104,0-0.18-0.022-0.224c-0.023-0.046-0.075-0.06-0.191-0.042
							c-0.211,0.031-0.436,0.078-0.628,0.174c-0.19,0.093-0.364,0.219-0.53,0.353c-0.037,0.031-0.076,0.058-0.111,0.089
							c-0.172,0.153-0.391,0.364-0.55,0.6c-0.118,0.174-0.208,0.357-0.203,0.546c0.039-0.002,0.081-0.019,0.12-0.025
							C13.467,27.387,13.63,27.343,13.795,27.295z"/>
						<path fill="#231F20" d="M22.937,36.37c-0.314,0.131-0.635,0.244-0.958,0.353c-0.459,0.136-0.932,0.265-1.394,0.402
							c0,0-0.084,0.092,0.812-0.093c2.268-0.131,1.106,1.432,0.388,2.252c-0.179,0.122-0.559,0.535-0.146,0.304
							c0.037-0.021,0.07-0.062,0.105-0.093c0.585-0.459,1.096-1.04,1.418-1.712c0.167-0.35,0.247-0.775,0.28-1.288
							c0.007-0.114-0.01-0.149-0.059-0.187C23.278,36.228,23.111,36.301,22.937,36.37z"/>
						<path fill="#231F20" d="M19.478,28.938c-0.276-0.24-0.656-0.362-1.144-0.378c-0.328,0.031-1.111,0.304-1.459,0.504
							c-0.011,0.004-0.023,0.004-0.033,0.009c-0.003,0.005-0.007,0.01-0.01,0.014c0,0-0.002,0.001-0.003,0.004
							c-0.001,0.002-0.003,0.004-0.004,0.006c-0.025,0.031-0.048,0.054-0.048,0.054s-0.003,0.004-0.009,0.008
							c0,0.033,0.024,0.062,0.082,0.081c0.045,0.004,0.115,0.006,0.21,0c0.032-0.002,0.058-0.002,0.097-0.006
							c0.052-0.004,0.09-0.01,0.128-0.016c0.022-0.002,0.043-0.006,0.063-0.009c0.287-0.056,0.137-0.138,0.296-0.147
							c0.018-0.002,0.028,0.013,0.043,0.017c0.005-0.004,0.005-0.005,0.01-0.012l0.29,0.029l0.174-0.174
							c-0.275,1.038,1.111,1.486,1.422,0.554l0.034,0.244c0,0,0.139,0.065,0.243,0.032c0.102-0.032,0.137-0.276,0.068-0.345
							L19.478,28.938z M19.168,29.475c0,0-0.313-0.101-0.276-0.069v-0.417c0.208,0.036,0.344,0.143,0.517,0.244h0.001L19.168,29.475
							z"/>
						<path fill="#231F20" d="M16.386,28.693c0.046-0.074,0.111-0.155,0.178-0.231c0.025-0.031,0.051-0.054,0.08-0.081
							c0.076-0.075,0.158-0.14,0.262-0.182c0.023-0.009,0.166-0.048,0.209-0.023c0.007,0.011,0.003,0.025-0.022,0.052
							c-0.08,0.081-0.354,0.36-0.259,0.495c0.017,0.022,0.042,0.024,0.064,0.031c0.031,0.006,0.066,0.004,0.105-0.011
							c0.023-0.014,0.057-0.024,0.09-0.035c0.066-0.033,0.132-0.07,0.183-0.079c0.054-0.008,0.443-0.063,0.475-0.019l-0.174-0.242
							c0,0,0.518-0.037,0.483-0.104c-0.206-0.174-0.085-0.252,0.123-0.264c0.206-0.015,0.5,0.037,0.638,0.126
							c0.053,0.037,0.104,0.049,0.153,0.063c0.152,0.042,0.31,0.029,0.48,0.102c0.237,0.101,0.315,0.284,0.472,0.497
							c0.173,0.227,0.177,0.107,0.223-0.063c0.006-0.018,0.011-0.045,0.019-0.068c0.062-0.208,0.111-0.362,0.132-0.579
							c0.027-0.275-0.019-0.563-0.093-0.599c-0.087,0.059-0.215,0.336-0.153,0.43c-0.066-0.099-0.074-0.269-0.114-0.393
							c-0.042-0.132-0.107-0.236-0.186-0.352c-0.005,0-0.045,0-0.05,0c0.008,0.116-0.02,0.234-0.024,0.35
							c-0.244-0.164-0.051-0.54-0.36-0.662c-0.009,0.114-0.02,0.237-0.097,0.329c-0.175-0.15-0.316-0.229-0.525-0.306
							c-0.017,0.127,0.042,0.229,0.037,0.352c-0.128,0.002-0.218-0.091-0.36-0.094c0.018,0.05-0.002,0.127,0.016,0.174
							c-0.131,0.009-0.263-0.039-0.394-0.054c-0.035-0.002-0.07,0-0.104,0.004c-0.028,0.002-0.055,0.002-0.082,0.01
							c0.015,0.166-0.042,0.209-0.131,0.222c-0.049,0.005-0.103,0.005-0.167,0.004c-0.17-0.007-0.195,0.003-0.193,0.068
							c0.002,0.037,0.009,0.087,0.008,0.176c0.002-0.132-0.676,0.066-0.754,0.15C16.46,28.011,16.19,28.495,16.386,28.693z"/>
						<path fill="#231F20" d="M20.666,46.209c0.24-0.068,0.383-0.381,0.276-0.725c-0.069-0.315-0.381-0.556-0.623-0.487
							c-0.208,0.033-0.389,0.383-0.288,0.692C20.102,46.035,20.423,46.242,20.666,46.209z"/>
						<path fill="#231F20" d="M6.923,34.001c0.046-0.002,0.662,0.077,0.682-0.024c0.018-0.085,0.013-0.163,0.03-0.346
							c0.01-0.114,0.008-0.348,0.111-0.348c0.07,0,0.123,0.12,0.135,0.229c0.021,0.173,0.028,0.341,0.037,0.514
							c0.395,0.036,0.537,0.015,0.809,0.02c0.192,0.004,0.347,0,0.576-0.044c-0.107-0.8-0.251-1.747-0.55-2.508
							C8.666,31.27,8.508,30.995,8.369,30.8c-0.058-0.079-0.101-0.12-0.15-0.124s-0.104,0.027-0.178,0.088
							c-0.255,0.211-0.501,0.578-0.621,0.888c-0.231,0.596-0.405,1.416-0.447,1.879L6.923,34.001z"/>
						<path fill="#231F20" d="M17.91,35.633c-0.047-0.021-0.111-0.042-0.184-0.063c0.097-0.095,0.186-0.2,0.301-0.278
							c-0.313-0.07-0.521-0.14-1.004,0.069c-0.018,0.095-0.02,0.177-0.022,0.259c-0.004,0.072-0.002,0.151,0.002,0.231
							c0.028,0.285,0.112,0.527,0.156,0.825c0.028-0.265,0.118-0.476,0.225-0.67c0.161,0.101,0.349,0.182,0.456,0.231
							c0.007,0.002,0.021,0.009,0.029,0.012c0.131,0.061,0.258,0.116,0.383,0.174c0.523,0.234,1.02,0.419,1.635,0.419
							c0.271,0,0.628-0.084,1.016-0.205c0.004-0.002,0.007-0.002,0.012-0.005c0.087-0.021,0.168-0.05,0.249-0.08
							c0.021-0.009,0.042-0.017,0.061-0.022c0.246-0.09,0.498-0.19,0.746-0.3c0.5-0.22,0.983-0.464,1.357-0.679
							c0.06-0.033,0.068-0.068,0.058-0.104c0.03-0.052,0.05-0.19,0.038-0.291c-0.006-0.054-0.018-0.098-0.046-0.102
							c-0.077-0.013-0.152-0.008-0.224-0.007c-0.009,0-0.019,0-0.027,0c-0.118,0.005-0.224,0.02-0.29,0.036
							c-0.122,0.033-0.391,0.178-0.391,0.178c-0.116,0.065-0.222,0.13-0.327,0.191c-0.147,0.087-0.295,0.174-0.44,0.26
							c-0.101,0.058-0.208,0.115-0.314,0.173c-0.238,0.132-0.495,0.263-0.816,0.403c-0.144,0.062-0.276,0.102-0.404,0.131
							c-0.147,0.032-0.285,0.045-0.417,0.041c-0.143-0.005-0.282-0.021-0.415-0.061c-0.372-0.107-0.742-0.409-1.127-0.629
							C18.094,35.722,18.004,35.67,17.91,35.633z"/>
						<path fill="#231F20" d="M8.293,26.827c0.008-0.023,0.015-0.048,0.02-0.077c0.002-0.012,0.004-0.024,0.007-0.037
							c0-0.004,0.001-0.009,0.002-0.015c0.008-0.1,0.011-0.23,0.003-0.395c-0.002-0.105-0.015-0.201-0.038-0.238
							c-0.179,0.077-0.443,0.405-0.436,0.633c-0.002,0.022-0.003,0.045-0.003,0.072c0,0.148-0.001,0.128,0.016,0.256
							c0.01,0.111,0.035,0.208,0.08,0.246c0.122-0.066,0.248-0.215,0.319-0.374c0.006-0.012,0.015-0.033,0.024-0.058
							C8.291,26.836,8.292,26.832,8.293,26.827z"/>
						<path fill="#231F20" d="M8.293,27.972c0.008-0.023,0.015-0.048,0.02-0.079c0.002-0.01,0.004-0.022,0.007-0.035
							c0,0,0.001-0.008,0.002-0.015c0.008-0.099,0.011-0.231,0.003-0.395c-0.002-0.108-0.015-0.2-0.038-0.238
							c-0.179,0.077-0.443,0.405-0.436,0.632c-0.002,0.021-0.003,0.045-0.003,0.071c0,0.15-0.001,0.13,0.016,0.258
							c0.01,0.109,0.035,0.208,0.08,0.246c0.122-0.066,0.248-0.215,0.319-0.374c0.006-0.013,0.015-0.033,0.024-0.058
							C8.291,27.982,8.292,27.976,8.293,27.972z"/>
						<path fill="#231F20" d="M8.293,29.117c0.008-0.022,0.015-0.049,0.02-0.078c0.002-0.012,0.004-0.024,0.007-0.035
							c0-0.006,0.001-0.01,0.002-0.015c0.008-0.101,0.011-0.231,0.003-0.395c-0.002-0.107-0.015-0.203-0.038-0.24
							c-0.179,0.079-0.443,0.408-0.436,0.635c-0.002,0.021-0.003,0.043-0.003,0.07c0,0.149-0.001,0.129,0.016,0.257
							c0.01,0.111,0.035,0.208,0.08,0.248c0.122-0.068,0.248-0.217,0.319-0.374c0.006-0.015,0.015-0.033,0.024-0.058
							C8.291,29.125,8.292,29.121,8.293,29.117z"/>
						<path fill="#231F20" d="M8.293,30.26c0.008-0.022,0.015-0.047,0.02-0.076c0.002-0.013,0.004-0.025,0.007-0.038
							c0,0,0.001-0.008,0.002-0.015c0.008-0.099,0.011-0.229,0.003-0.395C8.323,29.632,8.31,29.537,8.288,29.5
							c-0.179,0.077-0.443,0.405-0.436,0.632c-0.002,0.023-0.003,0.045-0.003,0.072c0,0.149-0.001,0.128,0.016,0.256
							c0.01,0.112,0.035,0.209,0.08,0.248c0.122-0.068,0.248-0.217,0.319-0.376c0.006-0.012,0.015-0.032,0.024-0.058
							C8.291,30.271,8.292,30.267,8.293,30.26z"/>
					</g>
				</g>
				<path fill="#FFFFFF" d="M25.995,23.558l-0.035,0.215l-0.432,0.649c-0.18,0-0.395-0.145-0.614-0.145l0,0l0,0
					c0.145-0.178,0.327-0.323,0.472-0.432l0,0C25.528,23.772,25.778,23.594,25.995,23.558L25.995,23.558L25.995,23.558z"/>
				<path fill="#FFFFFF" d="M25.786,24.391c0.145,0.07,0.29,0.18,0.397,0.287c0.179-0.324,0.504-0.396,0.792-0.432
					C26.651,24.101,26.184,24.21,25.786,24.391L25.786,24.391L25.786,24.391L25.786,24.391L25.786,24.391z"/>
			</g>
			<g>
				<path fill="#F48120" d="M0.78,31c0-5.392,2.109-10.47,5.944-14.298c3.826-3.823,8.899-5.93,14.281-5.93
					c11.134,0,20.186,9.075,20.186,20.228S32.14,51.227,21.005,51.227C9.853,51.227,0.78,42.153,0.78,31L0.78,31L0.78,31z
					 M6.17,16.15C2.19,20.125,0,25.397,0,31c0,11.582,9.422,21.006,21.005,21.006c11.562,0,20.968-9.425,20.968-21.006
					c0-11.583-9.406-21.007-20.968-21.007C15.417,9.993,10.146,12.181,6.17,16.15L6.17,16.15L6.17,16.15z"/>
			</g>
		</g>
	</g>
	<g>
		<g>
			<path fill="#F48120" d="M51.445,25.331h1.248c1.163,0,1.449-0.503,1.579-0.919c0.109-0.33,0.154-0.767,0.285-1.996
				c0.065-0.569,0.109-1.16,0.284-1.794c0.154-0.528,0.352-0.945,0.877-1.294c0.503-0.329,1.009-0.395,1.468-0.395
				c0.286,0,0.461,0.021,0.701,0.131v1.929h-0.175c-0.328,0-0.811,0.043-0.941,1.03c-0.132,0.941-0.111,1.182-0.242,1.949
				c-0.087,0.526-0.219,1.118-0.657,1.578c-0.13,0.152-0.459,0.461-1.008,0.591v0.066c0.723,0.088,1.468,0.505,1.864,1.338
				c0.131,0.263,0.371,0.876,0.459,2.277c0.066,1.009,0.087,1.578,0.286,1.93c0.219,0.372,0.504,0.416,0.746,0.416h0.087v1.93
				c-0.219,0.109-0.374,0.13-0.658,0.13c-0.833,0-1.754-0.174-2.258-1.16c-0.153-0.328-0.351-0.966-0.526-3.223
				c-0.044-0.548-0.087-1.622-0.613-2.124c-0.438-0.417-1.118-0.417-1.558-0.417h-1.248v6.794h-2.498V19.064h2.498V25.331
				L51.445,25.331z"/>
			<path fill="#F48120" d="M65.449,23.601c1.402,1.381,1.489,3.855,1.489,4.799c0,0.919-0.087,3.44-1.489,4.821
				c-0.68,0.657-1.709,1.097-2.937,1.097c-1.008,0-2.169-0.352-2.937-1.075c-1.206-1.14-1.534-3.308-1.534-4.842
				c0-1.93,0.483-3.813,1.534-4.822c0.657-0.635,1.731-1.073,3.003-1.073C63.914,22.504,64.878,23.052,65.449,23.601L65.449,23.601z
				 M61.239,24.828c-0.568,0.702-0.745,1.951-0.745,3.638c0,0.349,0,2.564,0.724,3.484c0.241,0.307,0.636,0.613,1.293,0.613
				c0.636,0,1.029-0.307,1.249-0.591c0.57-0.724,0.724-2.499,0.724-3.573c0-1.139-0.11-2.805-0.724-3.572
				c-0.351-0.438-0.745-0.57-1.271-0.57C61.985,24.258,61.614,24.39,61.239,24.828L61.239,24.828z"/>
			<polygon fill="#F48120" points="70.095,22.702 70.095,27.304 73.184,27.304 73.184,22.702 75.462,22.702 75.462,34.099 
				73.184,34.099 73.184,29.145 70.095,29.145 70.095,34.099 67.815,34.099 67.815,22.702 70.095,22.702 			"/>
			<path fill="#F48120" d="M84.93,30.329c-0.218,1.315-0.526,2.321-1.359,3.045c-0.678,0.615-1.688,0.943-2.717,0.943
				c-1.403,0-2.389-0.591-2.958-1.139c-1.513-1.515-1.556-4.253-1.556-4.866c0-2.61,0.898-4.099,1.776-4.844
				c0.942-0.812,2.016-0.965,2.847-0.965c0.767,0,1.623,0.132,2.368,0.701c1.184,0.898,1.49,2.478,1.555,3.354l-2.146,0.284
				c-0.043-0.525-0.198-1.534-0.592-2.038c-0.197-0.241-0.548-0.548-1.162-0.548c-0.569,0-0.986,0.263-1.25,0.526
				c-0.767,0.767-0.942,2.17-0.942,3.55c0,1.95,0.329,2.938,0.767,3.529c0.307,0.436,0.701,0.7,1.293,0.7
				c0.548,0,1.051-0.22,1.336-0.591c0.351-0.438,0.527-1.338,0.592-1.908L84.93,30.329L84.93,30.329z"/>
			<path fill="#F48120" d="M86.405,22.702l2.564,6.026h0.043l2.038-6.026h2.061l-2.893,8.415c-0.263,0.768-0.724,1.863-1.338,2.455
				c-0.438,0.395-1.116,0.768-2.147,0.768c-0.504,0-0.986-0.11-1.139-0.131v-1.886c0.285,0.109,0.526,0.133,0.854,0.133
				c0.306,0,0.811-0.044,1.182-0.33c0.178-0.132,0.33-0.351,0.417-0.635l-3.966-8.788H86.405L86.405,22.702z"/>
			<path fill="#F48120" d="M99.97,22.702v11.396H97.69v-9.556h-2.258c-0.043,1.645-0.043,2.366-0.175,3.682
				c-0.174,1.973-0.394,4.317-1.621,5.326c-0.394,0.328-1.03,0.612-1.841,0.612c-0.242,0-0.789-0.043-1.009-0.063v-1.755
				c0.79,0.134,1.294-0.219,1.601-0.613c0.393-0.503,0.612-1.358,0.767-3.155c0.067-0.636,0.176-2.039,0.176-5.348v-0.526H99.97
				L99.97,22.702z"/>
			<path fill="#F48120" d="M103.549,22.702v4.492h1.514c0.811,0,2.169,0.043,3.132,0.877c0.813,0.7,1.01,1.578,1.01,2.454
				c0,1.425-0.46,2.236-0.899,2.673c-0.416,0.417-1.206,0.9-2.432,0.9h-4.602V22.702H103.549L103.549,22.702z M103.549,32.388h1.688
				c0.592,0,0.985-0.219,1.205-0.438c0.439-0.416,0.439-1.007,0.439-1.272c0-0.503-0.111-0.985-0.527-1.358
				c-0.461-0.415-0.986-0.415-1.512-0.415h-1.294V32.388L103.549,32.388z"/>
			<polygon fill="#F48120" points="114.858,22.702 114.858,24.542 112.425,24.542 112.425,34.099 110.147,34.099 110.147,24.542 
				107.604,24.542 107.604,22.702 114.858,22.702 			"/>
			<path fill="#F48120" d="M118.837,22.702l3.133,11.396h-2.299l-0.724-2.763h-3.09l-0.724,2.763h-2.148l3.397-11.396H118.837
				L118.837,22.702z M117.436,25.047l-1.141,4.537h2.302L117.436,25.047L117.436,25.047z"/>
			<polygon fill="#F48120" points="124.337,22.702 124.337,27.304 127.426,27.304 127.426,22.702 129.706,22.702 129.706,34.099 
				127.426,34.099 127.426,29.145 124.337,29.145 124.337,34.099 122.06,34.099 122.06,22.702 124.337,22.702 			"/>
			<polygon fill="#F48120" points="137.442,22.702 137.442,24.542 135.011,24.542 135.011,34.099 132.732,34.099 132.732,24.542 
				130.189,24.542 130.189,22.702 137.442,22.702 			"/>
			<polygon fill="#F48120" points="147.283,19.064 147.283,34.099 144.828,34.099 144.828,21.059 140.489,21.059 140.489,34.099 
				138.034,34.099 138.034,19.064 147.283,19.064 			"/>
			<path fill="#F48120" d="M157.077,22.702v11.396h-2.279v-9.556h-2.258c-0.044,1.645-0.044,2.366-0.175,3.682
				c-0.176,1.973-0.396,4.317-1.621,5.326c-0.396,0.328-1.03,0.612-1.841,0.612c-0.242,0-0.791-0.043-1.009-0.063v-1.755
				c0.788,0.134,1.292-0.219,1.6-0.613c0.394-0.503,0.612-1.358,0.767-3.155c0.067-0.636,0.177-2.039,0.177-5.348v-0.526H157.077
				L157.077,22.702z"/>
			<path fill="#F48120" d="M160.671,22.702v4.514h1.621c0.087-1.358,0.657-2.848,1.468-3.638c0.635-0.613,1.645-1.073,2.915-1.073
				c1.337,0,2.235,0.548,2.784,1.097c1.401,1.402,1.49,3.813,1.49,4.799c0,0.943-0.089,3.418-1.49,4.821
				c-0.525,0.525-1.447,1.097-2.827,1.097c-1.424,0-2.368-0.571-2.872-1.075c-0.897-0.854-1.512-2.629-1.512-4.185h-1.577v5.041
				h-2.28V22.702H160.671L160.671,22.702z M165.36,24.849c-0.527,0.702-0.723,1.907-0.723,3.617c0,2.455,0.57,3.265,0.7,3.463
				c0.241,0.328,0.634,0.635,1.271,0.635c0.614,0,0.987-0.307,1.228-0.613c0.065-0.065,0.701-0.943,0.701-3.55
				c0-0.635-0.042-2.74-0.701-3.572c-0.351-0.438-0.767-0.57-1.249-0.57S165.732,24.368,165.36,24.849L165.36,24.849z"/>
			<path fill="#F48120" d="M180,30.329c-0.22,1.315-0.525,2.321-1.359,3.045c-0.68,0.615-1.688,0.943-2.718,0.943
				c-1.402,0-2.389-0.591-2.957-1.139c-1.513-1.515-1.558-4.253-1.558-4.866c0-2.61,0.899-4.099,1.775-4.844
				c0.943-0.812,2.017-0.965,2.851-0.965c0.767,0,1.621,0.132,2.366,0.701c1.184,0.898,1.489,2.478,1.557,3.354l-2.148,0.284
				c-0.045-0.525-0.197-1.534-0.592-2.038c-0.198-0.241-0.549-0.548-1.162-0.548c-0.57,0-0.986,0.263-1.249,0.526
				c-0.768,0.767-0.942,2.17-0.942,3.55c0,1.95,0.328,2.938,0.767,3.529c0.308,0.436,0.702,0.7,1.293,0.7
				c0.549,0,1.052-0.22,1.337-0.591c0.352-0.438,0.525-1.338,0.593-1.908L180,30.329L180,30.329z"/>
		</g>
		<g>
			<polygon fill="#231F20" points="50.097,36.991 50.097,38.986 52.024,38.986 52.024,36.991 53.176,36.991 53.176,42.055 
				52.024,42.055 52.024,39.842 50.097,39.842 50.097,42.055 48.946,42.055 48.946,36.991 50.097,36.991 			"/>
			<path fill="#231F20" d="M53.772,38.333c0.158-0.666,0.584-1.015,0.893-1.172c0.239-0.13,0.666-0.27,1.449-0.27
				c0.626,0,1.153,0.1,1.51,0.357c0.566,0.407,0.616,1.032,0.616,1.578v2.146c0,0.337,0.059,0.774,0.109,1.081h-1.151
				c-0.041-0.208-0.09-0.495-0.11-0.862c-0.456,0.874-1.271,0.961-1.689,0.961c-1.33,0-1.786-0.833-1.786-1.527
				c0-0.468,0.188-1.023,0.883-1.37c0.596-0.309,1.549-0.367,2.026-0.377l0.566-0.01v-0.171c0-0.099-0.01-0.495-0.179-0.712
				c-0.208-0.271-0.586-0.301-0.865-0.301c-0.366,0-0.595,0.06-0.754,0.149c-0.189,0.109-0.377,0.318-0.437,0.637L53.772,38.333
				L53.772,38.333z M56.562,39.603c-0.239,0-0.715,0.029-1.022,0.14c-0.586,0.197-0.676,0.625-0.676,0.874
				c0,0.248,0.129,0.396,0.209,0.467c0.18,0.167,0.457,0.237,0.695,0.237c0.387,0,0.774-0.188,0.994-0.466
				c0.208-0.258,0.327-0.687,0.327-1.004v-0.259L56.562,39.603L56.562,39.603z"/>
			<path fill="#231F20" d="M62.958,36.991v4.212h0.546v2.204h-1.053v-1.353h-2.93v1.353h-1.052v-2.204h0.407
				c0.249-0.369,0.507-0.915,0.654-1.849c0.09-0.586,0.129-1.368,0.129-1.956v-0.407H62.958L62.958,36.991z M60.544,38.231
				c-0.009,0.29-0.069,1.094-0.198,1.739c-0.08,0.396-0.198,0.793-0.417,1.232h1.877v-3.358h-1.252L60.544,38.231L60.544,38.231z"/>
			<path fill="#231F20" d="M68.389,40.587c-0.179,0.596-0.536,0.943-0.834,1.151c-0.397,0.268-0.914,0.415-1.46,0.415
				c-0.686,0-1.38-0.287-1.797-0.713c-0.387-0.396-0.676-1.083-0.676-1.897c0-1.032,0.427-1.718,0.895-2.104
				c0.268-0.229,0.774-0.547,1.539-0.547c0.964,0,1.58,0.446,1.907,0.904c0.347,0.478,0.506,1.144,0.506,1.718v0.229h-3.595
				c0,0.06-0.009,0.516,0.169,0.884c0.269,0.557,0.754,0.694,1.093,0.694c0.268,0,0.605-0.078,0.884-0.368
				c0.168-0.177,0.239-0.348,0.268-0.507L68.389,40.587L68.389,40.587z M67.217,38.986c0-0.288-0.069-0.614-0.219-0.833
				c-0.189-0.279-0.526-0.468-0.895-0.468c-0.377,0-0.704,0.188-0.903,0.429c-0.159,0.198-0.298,0.506-0.298,0.872H67.217
				L67.217,38.986z"/>
			<path fill="#231F20" d="M72.45,38.997h0.308c0.279,0,0.576-0.011,0.774-0.575c0.11-0.308,0.159-0.597,0.199-0.736
				c0.05-0.178,0.159-0.405,0.327-0.546c0.229-0.188,0.506-0.188,0.715-0.188c0.149,0,0.268,0.01,0.417,0.039v0.775l-0.178-0.011
				c-0.13-0.011-0.219,0.04-0.289,0.149c-0.069,0.109-0.089,0.238-0.119,0.347l-0.111,0.387c-0.048,0.17-0.127,0.407-0.346,0.566
				c-0.09,0.069-0.219,0.12-0.368,0.13v0.02c0.396,0.06,0.595,0.268,0.724,0.468c0.109,0.177,0.209,0.417,0.358,0.893
				c0.138,0.427,0.248,0.527,0.476,0.527h0.138v0.813c-0.178,0.031-0.317,0.041-0.496,0.041c-0.208,0-0.477-0.021-0.685-0.149
				c-0.318-0.198-0.447-0.615-0.526-0.845c-0.119-0.366-0.168-0.585-0.269-0.823c-0.177-0.417-0.437-0.428-0.704-0.428H72.45v2.204
				h-1.072v-2.204H71.03c-0.269,0-0.527,0.011-0.706,0.428c-0.098,0.238-0.148,0.457-0.269,0.823
				c-0.079,0.229-0.207,0.646-0.525,0.845c-0.208,0.129-0.477,0.149-0.685,0.149c-0.18,0-0.318-0.01-0.497-0.041v-0.813h0.139
				c0.229,0,0.337-0.101,0.477-0.527c0.15-0.476,0.249-0.716,0.358-0.893c0.13-0.2,0.328-0.408,0.725-0.468v-0.02
				c-0.148-0.01-0.278-0.061-0.368-0.13c-0.218-0.159-0.297-0.396-0.347-0.566l-0.109-0.387c-0.029-0.108-0.05-0.237-0.12-0.347
				c-0.069-0.109-0.158-0.16-0.287-0.149l-0.179,0.011v-0.775c0.149-0.029,0.268-0.039,0.417-0.039c0.209,0,0.487,0,0.715,0.188
				c0.169,0.141,0.278,0.368,0.327,0.546c0.04,0.14,0.089,0.429,0.198,0.736c0.199,0.564,0.497,0.575,0.775,0.575h0.308v-2.006
				h1.072V38.997L72.45,38.997z"/>
			<polygon fill="#231F20" points="76.839,36.991 76.839,38.986 78.766,38.986 78.766,36.991 79.918,36.991 79.918,42.055 
				78.766,42.055 78.766,39.842 76.839,39.842 76.839,42.055 75.687,42.055 75.687,36.991 76.839,36.991 			"/>
			<path fill="#231F20" d="M80.513,38.333c0.159-0.666,0.586-1.015,0.895-1.172c0.239-0.13,0.664-0.27,1.449-0.27
				c0.625,0,1.151,0.1,1.509,0.357c0.565,0.407,0.615,1.032,0.615,1.578v2.146c0,0.337,0.06,0.774,0.11,1.081h-1.152
				c-0.04-0.208-0.09-0.495-0.108-0.862c-0.458,0.874-1.272,0.961-1.688,0.961c-1.331,0-1.788-0.833-1.788-1.527
				c0-0.468,0.188-1.023,0.884-1.37c0.596-0.309,1.549-0.367,2.025-0.377l0.567-0.01v-0.171c0-0.099-0.011-0.495-0.18-0.712
				c-0.208-0.271-0.586-0.301-0.863-0.301c-0.367,0-0.597,0.06-0.755,0.149c-0.188,0.109-0.377,0.318-0.437,0.637L80.513,38.333
				L80.513,38.333z M83.304,39.603c-0.239,0-0.715,0.029-1.022,0.14c-0.587,0.197-0.675,0.625-0.675,0.874
				c0,0.248,0.129,0.396,0.208,0.467c0.178,0.167,0.457,0.237,0.694,0.237c0.388,0,0.775-0.188,0.993-0.466
				c0.209-0.258,0.329-0.687,0.329-1.004v-0.259L83.304,39.603L83.304,39.603z"/>
			<path fill="#231F20" d="M89.619,42.055h-1.151v-1.887h-0.895L86.6,42.055H85.31l1.163-2.045
				c-0.259-0.089-0.498-0.229-0.676-0.426c-0.308-0.328-0.377-0.666-0.377-1.045c0-0.336,0.06-0.665,0.316-0.981
				c0.397-0.487,0.974-0.566,1.719-0.566h2.165V42.055L89.619,42.055z M87.712,37.825c-0.407,0-0.705,0.03-0.903,0.268
				c-0.11,0.13-0.18,0.309-0.18,0.517c0,0.279,0.141,0.437,0.229,0.517c0.227,0.199,0.566,0.209,0.744,0.209h0.865v-1.51H87.712
				L87.712,37.825z"/>
			<polygon fill="#231F20" points="96.567,36.991 96.567,42.055 95.417,42.055 95.417,37.845 93.489,37.845 93.489,42.055 
				92.338,42.055 92.338,36.991 96.567,36.991 			"/>
			<path fill="#231F20" d="M97.333,43.685v-6.693h1.073v0.875l0.019-0.011c0.278-0.627,0.934-0.964,1.51-0.964
				c0.606,0,1.052,0.239,1.379,0.627c0.517,0.596,0.606,1.379,0.606,1.966c0,0.973-0.277,1.568-0.546,1.926
				c-0.456,0.605-1.043,0.743-1.48,0.743c-0.297,0-0.644-0.087-0.883-0.237c-0.188-0.118-0.379-0.317-0.496-0.576h-0.029v2.345
				H97.333L97.333,43.685z M98.485,40.039c0,0.3,0.039,0.597,0.276,0.903c0.209,0.261,0.468,0.378,0.795,0.378
				c0.358,0,0.634-0.179,0.844-0.545c0.229-0.397,0.268-0.836,0.268-1.271c0-0.428-0.039-0.904-0.268-1.281
				c-0.188-0.317-0.457-0.496-0.844-0.496c-0.347,0-0.636,0.159-0.815,0.388c-0.178,0.227-0.256,0.575-0.256,0.843V40.039
				L98.485,40.039z"/>
			<path fill="#231F20" d="M102.188,38.333c0.159-0.666,0.586-1.015,0.895-1.172c0.237-0.13,0.665-0.27,1.449-0.27
				c0.624,0,1.151,0.1,1.51,0.357c0.565,0.407,0.615,1.032,0.615,1.578v2.146c0,0.337,0.059,0.774,0.109,1.081h-1.151
				c-0.041-0.208-0.091-0.495-0.112-0.862c-0.455,0.874-1.269,0.961-1.687,0.961c-1.329,0-1.787-0.833-1.787-1.527
				c0-0.468,0.188-1.023,0.883-1.37c0.597-0.309,1.552-0.367,2.026-0.377l0.564-0.01v-0.171c0-0.099-0.008-0.495-0.177-0.712
				c-0.209-0.271-0.586-0.301-0.862-0.301c-0.368,0-0.598,0.06-0.756,0.149c-0.189,0.109-0.377,0.318-0.438,0.637L102.188,38.333
				L102.188,38.333z M104.978,39.603c-0.238,0-0.716,0.029-1.021,0.14c-0.588,0.197-0.677,0.625-0.677,0.874
				c0,0.248,0.128,0.396,0.209,0.467c0.178,0.167,0.454,0.237,0.692,0.237c0.389,0,0.777-0.188,0.994-0.466
				c0.209-0.258,0.326-0.687,0.326-1.004v-0.259L104.978,39.603L104.978,39.603z"/>
			<path fill="#231F20" d="M109.913,36.991c0.416,0,0.872,0.03,1.211,0.249c0.259,0.168,0.505,0.456,0.505,0.973
				c0,0.377-0.136,0.635-0.316,0.813c-0.17,0.17-0.396,0.289-0.665,0.328v0.021c0.339,0.028,0.695,0.168,0.914,0.376
				c0.179,0.17,0.349,0.447,0.349,0.875c0,0.635-0.329,0.973-0.527,1.122c-0.406,0.297-0.884,0.307-1.303,0.307h-2.7v-5.063H109.913
				L109.913,36.991z M108.532,39.076h1.055c0.236,0,0.456-0.009,0.652-0.207c0.09-0.09,0.199-0.249,0.199-0.497
				c0-0.209-0.06-0.368-0.218-0.498c-0.199-0.159-0.409-0.147-0.587-0.147h-1.102V39.076L108.532,39.076z M108.532,41.32h1.231
				c0.199,0,0.476-0.02,0.675-0.209c0.13-0.118,0.22-0.316,0.22-0.556c0-0.268-0.119-0.446-0.279-0.564
				c-0.198-0.149-0.444-0.18-0.653-0.18h-1.193V41.32L108.532,41.32z"/>
			<path fill="#231F20" d="M112.932,37.508c0.348-0.329,0.863-0.616,1.638-0.616c0.775,0,1.292,0.287,1.639,0.616
				c0.518,0.486,0.785,1.241,0.785,2.016s-0.268,1.529-0.785,2.015c-0.347,0.328-0.863,0.615-1.639,0.615
				c-0.774,0-1.29-0.287-1.638-0.615c-0.517-0.485-0.786-1.24-0.786-2.015S112.415,37.994,112.932,37.508L112.932,37.508z
				 M113.775,40.952c0.11,0.131,0.357,0.368,0.794,0.368c0.438,0,0.688-0.237,0.796-0.368c0.079-0.088,0.377-0.484,0.377-1.429
				c0-0.943-0.298-1.341-0.377-1.431c-0.108-0.128-0.357-0.366-0.796-0.366c-0.437,0-0.684,0.238-0.794,0.366
				c-0.078,0.09-0.376,0.487-0.376,1.431C113.399,40.468,113.697,40.864,113.775,40.952L113.775,40.952z"/>
			<path fill="#231F20" d="M119.962,36.991c0.418,0,0.873,0.03,1.212,0.249c0.259,0.168,0.506,0.456,0.506,0.973
				c0,0.377-0.138,0.635-0.318,0.813c-0.167,0.17-0.396,0.289-0.666,0.328v0.021c0.34,0.028,0.695,0.168,0.916,0.376
				c0.179,0.17,0.348,0.447,0.348,0.875c0,0.635-0.328,0.973-0.526,1.122c-0.407,0.297-0.885,0.307-1.302,0.307h-2.7v-5.063H119.962
				L119.962,36.991z M118.582,39.076h1.053c0.239,0,0.457-0.009,0.655-0.207c0.09-0.09,0.198-0.249,0.198-0.497
				c0-0.209-0.059-0.368-0.218-0.498c-0.198-0.159-0.408-0.147-0.585-0.147h-1.104V39.076L118.582,39.076z M118.582,41.32h1.23
				c0.2,0,0.478-0.02,0.676-0.209c0.129-0.118,0.219-0.316,0.219-0.556c0-0.268-0.12-0.446-0.277-0.564
				c-0.198-0.149-0.447-0.18-0.656-0.18h-1.191V41.32L118.582,41.32z"/>
			<path fill="#231F20" d="M122.355,38.333c0.158-0.666,0.587-1.015,0.895-1.172c0.237-0.13,0.665-0.27,1.448-0.27
				c0.626,0,1.153,0.1,1.511,0.357c0.564,0.407,0.613,1.032,0.613,1.578v2.146c0,0.337,0.061,0.774,0.11,1.081h-1.152
				c-0.039-0.208-0.088-0.495-0.109-0.862c-0.456,0.874-1.271,0.961-1.687,0.961c-1.332,0-1.789-0.833-1.789-1.527
				c0-0.468,0.189-1.023,0.883-1.37c0.598-0.309,1.551-0.367,2.028-0.377l0.564-0.01v-0.171c0-0.099-0.008-0.495-0.178-0.712
				c-0.209-0.271-0.586-0.301-0.864-0.301c-0.366,0-0.596,0.06-0.755,0.149c-0.188,0.109-0.376,0.318-0.437,0.637L122.355,38.333
				L122.355,38.333z M125.146,39.603c-0.238,0-0.716,0.029-1.023,0.14c-0.585,0.197-0.674,0.625-0.674,0.874
				c0,0.248,0.128,0.396,0.207,0.467c0.18,0.167,0.456,0.237,0.695,0.237c0.388,0,0.774-0.188,0.994-0.466
				c0.208-0.258,0.326-0.687,0.326-1.004v-0.259L125.146,39.603L125.146,39.603z"/>
			<path fill="#231F20" d="M131.46,42.055h-1.15v-1.887h-0.894l-0.974,1.887h-1.291l1.162-2.045
				c-0.259-0.089-0.497-0.229-0.676-0.426c-0.309-0.328-0.377-0.666-0.377-1.045c0-0.336,0.059-0.665,0.316-0.981
				c0.398-0.487,0.974-0.566,1.719-0.566h2.164V42.055L131.46,42.055z M129.554,37.825c-0.406,0-0.705,0.03-0.903,0.268
				c-0.109,0.13-0.18,0.309-0.18,0.517c0,0.279,0.141,0.437,0.229,0.517c0.227,0.199,0.564,0.209,0.745,0.209h0.864v-1.51H129.554
				L129.554,37.825z"/>
			<polygon fill="#231F20" points="138.41,36.991 138.41,42.055 137.259,42.055 137.259,37.845 135.331,37.845 135.331,42.055 
				134.18,42.055 134.18,36.991 138.41,36.991 			"/>
			<path fill="#231F20" d="M139.632,37.508c0.348-0.329,0.864-0.616,1.638-0.616c0.775,0,1.291,0.287,1.639,0.616
				c0.518,0.486,0.785,1.241,0.785,2.016s-0.268,1.529-0.785,2.015c-0.348,0.328-0.863,0.615-1.639,0.615
				c-0.773,0-1.29-0.287-1.638-0.615c-0.517-0.485-0.786-1.24-0.786-2.015S139.115,37.994,139.632,37.508L139.632,37.508z
				 M140.476,40.952c0.109,0.131,0.357,0.368,0.794,0.368s0.688-0.237,0.796-0.368c0.079-0.088,0.377-0.484,0.377-1.429
				c0-0.943-0.298-1.341-0.377-1.431c-0.108-0.128-0.359-0.366-0.796-0.366s-0.685,0.238-0.794,0.366
				c-0.078,0.09-0.378,0.487-0.378,1.431C140.098,40.468,140.397,40.864,140.476,40.952L140.476,40.952z"/>
			<path fill="#231F20" d="M148.122,36.991v4.212h0.546v2.204h-1.052v-1.353h-2.932v1.353h-1.052v-2.204h0.408
				c0.247-0.369,0.507-0.915,0.654-1.849c0.09-0.586,0.129-1.368,0.129-1.956v-0.407H148.122L148.122,36.991z M145.709,38.231
				c-0.011,0.29-0.07,1.094-0.199,1.739c-0.079,0.396-0.198,0.793-0.417,1.232h1.878v-3.358h-1.254L145.709,38.231L145.709,38.231z"
				/>
			<path fill="#231F20" d="M153.105,36.991v4.212h0.548v2.204h-1.053v-1.353h-2.93v1.353h-1.053v-2.204h0.407
				c0.248-0.369,0.507-0.915,0.656-1.849c0.088-0.586,0.127-1.368,0.127-1.956v-0.407H153.105L153.105,36.991z M150.694,38.231
				c-0.011,0.29-0.07,1.094-0.199,1.739c-0.08,0.396-0.2,0.793-0.417,1.232h1.876v-3.358h-1.251L150.694,38.231L150.694,38.231z"/>
			<path fill="#231F20" d="M158.536,40.587c-0.177,0.596-0.535,0.943-0.832,1.151c-0.397,0.268-0.915,0.415-1.46,0.415
				c-0.685,0-1.38-0.287-1.797-0.713c-0.387-0.396-0.676-1.083-0.676-1.897c0-1.032,0.427-1.718,0.894-2.104
				c0.271-0.229,0.777-0.547,1.54-0.547c0.963,0,1.579,0.446,1.906,0.904c0.347,0.478,0.506,1.144,0.506,1.718v0.229h-3.594
				c0,0.06-0.01,0.516,0.168,0.884c0.269,0.557,0.754,0.694,1.094,0.694c0.267,0,0.604-0.078,0.883-0.368
				c0.17-0.177,0.238-0.348,0.269-0.507L158.536,40.587L158.536,40.587z M157.367,38.986c0-0.288-0.071-0.614-0.217-0.833
				c-0.191-0.279-0.528-0.468-0.896-0.468c-0.376,0-0.705,0.188-0.903,0.429c-0.159,0.198-0.298,0.506-0.298,0.872H157.367
				L157.367,38.986z"/>
			<path fill="#231F20" d="M159.056,43.685v-6.693h1.071v0.875l0.021-0.011c0.278-0.627,0.934-0.964,1.51-0.964
				c0.605,0,1.052,0.239,1.379,0.627c0.517,0.596,0.605,1.379,0.605,1.966c0,0.973-0.278,1.568-0.546,1.926
				c-0.454,0.605-1.042,0.743-1.48,0.743c-0.295,0-0.645-0.087-0.883-0.237c-0.188-0.118-0.377-0.317-0.496-0.576h-0.028v2.345
				H159.056L159.056,43.685z M160.208,40.039c0,0.3,0.039,0.597,0.276,0.903c0.209,0.261,0.468,0.378,0.794,0.378
				c0.358,0,0.637-0.179,0.844-0.545c0.229-0.397,0.269-0.836,0.269-1.271c0-0.428-0.039-0.904-0.269-1.281
				c-0.188-0.317-0.456-0.496-0.844-0.496c-0.347,0-0.635,0.159-0.813,0.388c-0.179,0.227-0.257,0.575-0.257,0.843V40.039
				L160.208,40.039z"/>
			<path fill="#231F20" d="M167.625,38.997h0.305c0.28,0,0.578-0.011,0.776-0.575c0.109-0.308,0.159-0.597,0.198-0.736
				c0.049-0.178,0.159-0.405,0.328-0.546c0.228-0.188,0.506-0.188,0.716-0.188c0.147,0,0.268,0.01,0.416,0.039v0.775l-0.181-0.011
				c-0.127-0.011-0.217,0.04-0.286,0.149s-0.09,0.238-0.12,0.347l-0.108,0.387c-0.051,0.17-0.13,0.407-0.347,0.566
				c-0.09,0.069-0.22,0.12-0.369,0.13v0.02c0.397,0.06,0.597,0.268,0.727,0.468c0.109,0.177,0.207,0.417,0.356,0.893
				c0.14,0.427,0.248,0.527,0.477,0.527h0.141v0.813c-0.18,0.031-0.318,0.041-0.498,0.041c-0.207,0-0.476-0.021-0.685-0.149
				c-0.318-0.198-0.446-0.615-0.527-0.845c-0.117-0.366-0.168-0.585-0.267-0.823c-0.18-0.417-0.438-0.428-0.705-0.428h-0.347v2.204
				h-1.074v-2.204h-0.348c-0.269,0-0.526,0.011-0.705,0.428c-0.099,0.238-0.149,0.457-0.268,0.823
				c-0.08,0.229-0.207,0.646-0.525,0.845c-0.21,0.129-0.478,0.149-0.688,0.149c-0.177,0-0.315-0.01-0.495-0.041v-0.813h0.138
				c0.23,0,0.34-0.101,0.478-0.527c0.149-0.476,0.249-0.716,0.357-0.893c0.131-0.2,0.327-0.408,0.724-0.468v-0.02
				c-0.147-0.01-0.276-0.061-0.365-0.13c-0.219-0.159-0.3-0.396-0.348-0.566l-0.108-0.387c-0.032-0.108-0.051-0.237-0.12-0.347
				c-0.068-0.109-0.159-0.16-0.288-0.149l-0.178,0.011v-0.775c0.148-0.029,0.268-0.039,0.416-0.039c0.209,0,0.485,0,0.715,0.188
				c0.168,0.141,0.276,0.368,0.327,0.546c0.04,0.14,0.089,0.429,0.199,0.736c0.197,0.564,0.496,0.575,0.774,0.575h0.308v-2.006
				h1.074V38.997L167.625,38.997z"/>
			<path fill="#231F20" d="M172.014,36.991v2.006h0.536c0.496,0,0.725-0.128,0.883-0.497c0.099-0.227,0.141-0.456,0.229-0.733
				l0.05-0.149c0.06-0.169,0.178-0.389,0.327-0.496c0.18-0.141,0.447-0.169,0.616-0.169c0.199,0,0.358,0.02,0.479,0.039v0.754
				c-0.042-0.009-0.092-0.009-0.131-0.009c-0.129,0-0.228,0.03-0.318,0.13c-0.071,0.089-0.13,0.227-0.208,0.535
				c-0.051,0.188-0.108,0.446-0.278,0.645c-0.168,0.198-0.406,0.289-0.615,0.299v0.02c0.396,0.061,0.605,0.279,0.734,0.486
				c0.108,0.17,0.189,0.377,0.288,0.655c0.149,0.388,0.181,0.527,0.269,0.616c0.108,0.109,0.26,0.12,0.347,0.12
				c0.041,0,0.091,0,0.13-0.011v0.805c-0.149,0.03-0.327,0.06-0.527,0.06c-0.307,0-0.596-0.06-0.823-0.288
				c-0.219-0.219-0.318-0.537-0.417-0.865c-0.129-0.437-0.199-0.645-0.298-0.792c-0.188-0.3-0.408-0.3-0.685-0.3h-0.586v2.204
				h-1.152v-5.063H172.014L172.014,36.991z"/>
			<path fill="#231F20" d="M175.39,38.333c0.158-0.666,0.587-1.015,0.895-1.172c0.237-0.13,0.663-0.27,1.449-0.27
				c0.625,0,1.152,0.1,1.51,0.357c0.565,0.407,0.613,1.032,0.613,1.578v2.146c0,0.337,0.062,0.774,0.11,1.081h-1.152
				c-0.039-0.208-0.088-0.495-0.108-0.862c-0.457,0.874-1.271,0.961-1.688,0.961c-1.332,0-1.788-0.833-1.788-1.527
				c0-0.468,0.188-1.023,0.883-1.37c0.598-0.309,1.551-0.367,2.026-0.377l0.566-0.01v-0.171c0-0.099-0.012-0.495-0.179-0.712
				c-0.209-0.271-0.586-0.301-0.863-0.301c-0.367,0-0.597,0.06-0.756,0.149c-0.188,0.109-0.376,0.318-0.437,0.637L175.39,38.333
				L175.39,38.333z M178.18,39.603c-0.238,0-0.716,0.029-1.022,0.14c-0.586,0.197-0.675,0.625-0.675,0.874
				c0,0.248,0.128,0.396,0.209,0.467c0.178,0.167,0.454,0.237,0.694,0.237c0.389,0,0.776-0.188,0.993-0.466
				c0.208-0.258,0.327-0.687,0.327-1.004v-0.259L178.18,39.603L178.18,39.603z"/>
		</g>
	</g>
</g>
</svg>
