<svg width="156" height="52" viewBox="0 0 156 52" fill="none" xmlns="http://www.w3.org/2000/svg">
<g clip-path="url(#clip0_971_245)">
<rect width="156" height="52" fill="white"/>
<g clip-path="url(#clip1_971_245)">
<path d="M62.6364 20.5909C62.6364 18.8485 62.6364 17.1818 63.3524 16.2727C64.4662 14.9848 66.9324 14 70.2737 14C75.3653 14 79.5817 18.5455 79.5817 24.303C79.5817 29.7576 76.0017 34 70.2737 34C66.6938 34 63.9889 32.8636 62 29.303L62.6364 28.8485C64.3071 31.4242 66.3755 32.8636 69.3986 32.8636C74.4106 32.8636 76.479 28.697 76.5586 24.6061H66.6142V23.4697H76.5586C76.2404 17.3333 73.0582 15.2121 69.3986 15.2121C66.1369 15.2121 63.9889 16.9545 63.2729 20.6667H62.6364V20.5909Z" fill="black"/>
<path d="M95.8906 14.606V33.4696H93.1858V15.7423H86.0258V19.1514C86.0258 30.8938 84.196 33.6969 80.9343 33.6969C80.2978 33.6969 79.5818 33.5454 79.1045 33.3938V32.712C81.9685 32.5605 83.48 29.6817 83.48 18.015C83.48 16.2726 83.1618 15.1363 81.4116 15.1363H81.0934V14.606H95.8906Z" fill="black"/>
<path d="M101.221 14.606C103.289 14.606 103.926 15.2121 103.926 18.0151V23.5454L110.211 17.5606C111.722 16.1212 112.916 14.5303 115.302 14.5303H116.814V15.2121C115.143 15.2121 114.109 15.6666 112.438 17.1818L106.551 22.7878L113.472 29.606C115.064 31.1969 117.052 32.6363 118.564 32.7878V33.3182C118.087 33.4697 117.53 33.6212 116.575 33.6212C114.904 33.6212 112.995 33.0151 110.131 30.2121L103.846 23.9242V33.3182H101.141V18.0151C101.141 16.2727 100.823 15.1363 99.073 15.1363H98.4365V14.606H101.221Z" fill="black"/>
<path d="M126.44 14C132.168 14 135.748 18.3939 135.748 24C135.748 29.6061 132.168 34 126.44 34C120.712 34 117.132 29.6061 117.132 24C117.132 18.3939 120.712 14 126.44 14ZM126.44 15.1364C122.542 15.1364 120.155 18.5455 120.155 24C120.155 29.4545 122.542 32.8636 126.44 32.8636C130.338 32.8636 132.725 29.4545 132.725 24C132.725 18.5455 130.338 15.1364 126.44 15.1364Z" fill="black"/>
<path d="M153.966 32.2575C154.602 32.2575 155 32.712 155 33.2423V38.5454H153.648C153.329 35.2878 152.932 33.3938 149.829 33.3938H134.952V33.2423C134.952 32.6363 135.429 32.2575 135.986 32.2575H137.18C139.089 28.2423 139.725 23.3938 139.725 17.9393C139.725 16.1969 139.407 15.0605 137.657 15.0605H137.18V14.606H152.136V32.3332H153.966V32.2575ZM149.59 32.2575V15.7423H142.271C142.271 23.4696 141.635 28.4696 139.885 32.3332H149.59V32.2575Z" fill="black"/>
<path d="M64.9456 41.1605C65.1904 41.1605 65.3717 41.1016 65.4896 40.9837C65.6074 40.8613 65.6777 40.6891 65.7004 40.4669H64.7076C64.6849 40.4669 64.6645 40.4624 64.6464 40.4533C64.6282 40.4397 64.6192 40.4148 64.6192 40.3785V39.8549C64.6192 39.8323 64.6237 39.8141 64.6328 39.8005C64.6464 39.7824 64.6713 39.7733 64.7076 39.7733H65.68C65.6573 39.5875 65.5893 39.4447 65.476 39.3449C65.3672 39.2452 65.2108 39.1953 65.0068 39.1953C64.9025 39.1953 64.7892 39.2067 64.6668 39.2293C64.5489 39.252 64.431 39.2815 64.3132 39.3177C64.2497 39.3359 64.2044 39.3427 64.1772 39.3381C64.15 39.3336 64.125 39.3064 64.1024 39.2565L63.9392 38.7329C63.921 38.6785 63.9142 38.64 63.9188 38.6173C63.9233 38.5947 63.9573 38.5697 64.0208 38.5425C64.1749 38.47 64.3472 38.4133 64.5376 38.3725C64.728 38.3317 64.9184 38.3113 65.1088 38.3113C65.6301 38.3113 66.0336 38.4655 66.3192 38.7737C66.6093 39.0775 66.7544 39.5195 66.7544 40.0997C66.7544 40.7344 66.6116 41.2172 66.326 41.5481C66.0449 41.8791 65.6301 42.0445 65.0816 42.0445C64.8912 42.0445 64.6872 42.0264 64.4696 41.9901C64.2565 41.9584 64.048 41.8859 63.844 41.7725C63.7941 41.7499 63.7669 41.7249 63.7624 41.6977C63.7624 41.6705 63.7714 41.632 63.7896 41.5821L63.9936 41.0653C64.0117 41.0155 64.0298 40.9883 64.048 40.9837C64.0706 40.9792 64.1092 40.986 64.1636 41.0041C64.2678 41.0404 64.388 41.0767 64.524 41.1129C64.66 41.1447 64.8005 41.1605 64.9456 41.1605ZM68.4798 41.8337C68.4798 41.8927 68.4685 41.9312 68.4458 41.9493C68.4277 41.9629 68.3869 41.9697 68.3234 41.9697H67.6434C67.5437 41.9697 67.4938 41.9244 67.4938 41.8337V38.5289C67.4938 38.4428 67.5437 38.3997 67.6434 38.3997H68.3234C68.3869 38.3997 68.4277 38.4088 68.4458 38.4269C68.4685 38.4405 68.4798 38.4745 68.4798 38.5289V39.6917H69.7514V38.5289C69.7514 38.4428 69.8013 38.3997 69.901 38.3997H70.581C70.6445 38.3997 70.6853 38.4088 70.7034 38.4269C70.7215 38.4405 70.7306 38.4745 70.7306 38.5289V41.8337C70.7306 41.8927 70.7215 41.9312 70.7034 41.9493C70.6853 41.9629 70.6445 41.9697 70.581 41.9697H69.901C69.8013 41.9697 69.7514 41.9244 69.7514 41.8337V40.4669H68.4798V41.8337ZM73.168 38.3113C73.6984 38.3113 74.0951 38.4451 74.358 38.7125C74.6255 38.9755 74.7592 39.354 74.7592 39.8481C74.7592 40.0839 74.7139 40.2448 74.6232 40.3309C74.5326 40.4171 74.4079 40.4601 74.2492 40.4601H72.5084C72.513 40.6052 72.5356 40.7253 72.5764 40.8205C72.6218 40.9157 72.6807 40.9928 72.7532 41.0517C72.8258 41.1107 72.9096 41.1515 73.0048 41.1741C73.1046 41.1968 73.2111 41.2081 73.3244 41.2081C73.4559 41.2081 73.5896 41.1923 73.7256 41.1605C73.8616 41.1288 73.9886 41.088 74.1064 41.0381C74.1608 41.02 74.1971 41.0155 74.2152 41.0245C74.2379 41.0291 74.2583 41.0495 74.2764 41.0857L74.494 41.5753C74.5122 41.6161 74.5144 41.6479 74.5008 41.6705C74.4918 41.6932 74.4691 41.7159 74.4328 41.7385C74.2651 41.8473 74.0702 41.9244 73.848 41.9697C73.6259 42.0196 73.4196 42.0445 73.2292 42.0445C72.6354 42.0445 72.1956 41.8972 71.91 41.6025C71.6244 41.3079 71.4816 40.8409 71.4816 40.2017C71.4816 39.9025 71.5202 39.6373 71.5972 39.4061C71.6788 39.1704 71.7922 38.9709 71.9372 38.8077C72.0868 38.6445 72.2636 38.5221 72.4676 38.4405C72.6762 38.3544 72.9096 38.3113 73.168 38.3113ZM73.1884 39.1273C73.0026 39.1273 72.8507 39.1931 72.7328 39.3245C72.615 39.456 72.547 39.6237 72.5288 39.8277H73.8004C73.8004 39.728 73.7891 39.6351 73.7664 39.5489C73.7483 39.4628 73.7166 39.3903 73.6712 39.3313C73.6259 39.2679 73.5647 39.218 73.4876 39.1817C73.4106 39.1455 73.3108 39.1273 73.1884 39.1273ZM76.4753 43.2413C76.4753 43.2912 76.4662 43.3229 76.4481 43.3365C76.4345 43.3501 76.3959 43.3569 76.3325 43.3569H75.6253C75.5754 43.3569 75.5391 43.3501 75.5165 43.3365C75.4938 43.3229 75.4825 43.2912 75.4825 43.2413V38.8077C75.4825 38.7579 75.4893 38.7193 75.5029 38.6921C75.521 38.6604 75.5595 38.6287 75.6185 38.5969C75.8361 38.4972 76.0786 38.4269 76.3461 38.3861C76.6181 38.3453 76.8765 38.3249 77.1213 38.3249C77.4431 38.3249 77.7129 38.3748 77.9305 38.4745C78.1526 38.5697 78.3294 38.7012 78.4609 38.8689C78.5969 39.0321 78.6943 39.2271 78.7533 39.4537C78.8122 39.6804 78.8417 39.9229 78.8417 40.1813C78.8417 40.4352 78.8099 40.6755 78.7465 40.9021C78.683 41.1243 78.5855 41.3192 78.4541 41.4869C78.3226 41.6547 78.1549 41.7884 77.9509 41.8881C77.7514 41.9833 77.5157 42.0309 77.2437 42.0309C77.1077 42.0309 76.9807 42.0241 76.8629 42.0105C76.7495 42.0015 76.6203 41.9811 76.4753 41.9493V43.2413ZM77.8081 40.1609C77.8081 39.9751 77.7899 39.8187 77.7537 39.6917C77.7174 39.5648 77.663 39.4628 77.5905 39.3857C77.5225 39.3087 77.4363 39.2543 77.3321 39.2225C77.2323 39.1908 77.119 39.1749 76.9921 39.1749C76.9286 39.1749 76.8447 39.1817 76.7405 39.1953C76.6407 39.2089 76.5523 39.2271 76.4753 39.2497V41.1061C76.5931 41.1379 76.6974 41.1583 76.7881 41.1673C76.8833 41.1764 76.9671 41.1809 77.0397 41.1809C77.2663 41.1809 77.4499 41.1039 77.5905 40.9497C77.7355 40.7956 77.8081 40.5327 77.8081 40.1609ZM80.5724 41.8337C80.5724 41.8927 80.5633 41.9312 80.5452 41.9493C80.527 41.9629 80.484 41.9697 80.416 41.9697H79.7428C79.6385 41.9697 79.5864 41.9244 79.5864 41.8337V39.4537C79.5864 39.3177 79.6 39.1863 79.6272 39.0593C79.6589 38.9279 79.7133 38.8145 79.7904 38.7193C79.872 38.6196 79.983 38.5425 80.1236 38.4881C80.2641 38.4292 80.4477 38.3997 80.6744 38.3997H82.2724C82.3268 38.3997 82.3608 38.4111 82.3744 38.4337C82.3925 38.4519 82.4016 38.4927 82.4016 38.5561V39.0457C82.4016 39.1001 82.3925 39.1409 82.3744 39.1681C82.3562 39.1908 82.3222 39.2021 82.2724 39.2021H80.9668C80.8081 39.2021 80.7016 39.2339 80.6472 39.2973C80.5973 39.3608 80.5724 39.4515 80.5724 39.5693V41.8337ZM82.9133 38.5085C82.9133 38.436 82.9541 38.3997 83.0357 38.3997H83.7633C83.8177 38.3997 83.8517 38.4065 83.8653 38.4201C83.8835 38.4337 83.8925 38.4632 83.8925 38.5085V40.5893H83.9265C84.0127 40.4443 84.0829 40.3264 84.1373 40.2357C84.1963 40.1405 84.2439 40.0635 84.2801 40.0045C84.3164 39.9411 84.3481 39.8889 84.3753 39.8481C84.4025 39.8073 84.4297 39.7643 84.4569 39.7189C84.5431 39.5875 84.6405 39.4333 84.7493 39.2565C84.8581 39.0797 84.9873 38.8689 85.1369 38.6241C85.1687 38.5788 85.1981 38.5425 85.2253 38.5153C85.2525 38.4836 85.2797 38.4609 85.3069 38.4473C85.3387 38.4292 85.3727 38.4179 85.4089 38.4133C85.4497 38.4043 85.4996 38.3997 85.5585 38.3997H85.8917C86.0187 38.3997 86.1139 38.4269 86.1773 38.4813C86.2408 38.5312 86.2725 38.6309 86.2725 38.7805V41.8609C86.2725 41.9063 86.2635 41.9357 86.2453 41.9493C86.2272 41.9629 86.1955 41.9697 86.1501 41.9697H85.4157C85.3659 41.9697 85.3319 41.9652 85.3137 41.9561C85.2956 41.9425 85.2865 41.9108 85.2865 41.8609V39.8209H85.2525C85.1483 39.9796 85.0485 40.1383 84.9533 40.2969C84.8627 40.4511 84.7675 40.6052 84.6677 40.7593C84.5635 40.9225 84.4592 41.088 84.3549 41.2557C84.2507 41.4189 84.1441 41.5821 84.0353 41.7453C83.9719 41.8405 83.9129 41.9017 83.8585 41.9289C83.8041 41.9561 83.7225 41.9697 83.6137 41.9697H83.2941C83.1355 41.9697 83.0312 41.938 82.9813 41.8745C82.936 41.8111 82.9133 41.7159 82.9133 41.5889V38.5085ZM89.3257 40.6165H88.7953C88.6367 40.6165 88.5075 40.6437 88.4077 40.6981C88.308 40.748 88.2332 40.8545 88.1833 41.0177C88.1471 41.1492 88.1063 41.2829 88.0609 41.4189C88.0201 41.5549 87.9793 41.6909 87.9385 41.8269C87.9204 41.8904 87.8887 41.9312 87.8433 41.9493C87.8025 41.9629 87.7595 41.9697 87.7141 41.9697H87.0341C86.9661 41.9697 86.9321 41.9471 86.9321 41.9017V41.8745C86.9321 41.8609 86.9344 41.8519 86.9389 41.8473C86.9888 41.6932 87.0387 41.5391 87.0885 41.3849C87.1384 41.2308 87.1883 41.0767 87.2381 40.9225C87.2744 40.8137 87.3265 40.7095 87.3945 40.6097C87.4625 40.5055 87.5849 40.4284 87.7617 40.3785V40.3649C87.526 40.2879 87.3651 40.17 87.2789 40.0113C87.1928 39.8481 87.1497 39.6668 87.1497 39.4673C87.1497 39.3177 87.1769 39.1772 87.2313 39.0457C87.2903 38.9143 87.3719 38.8009 87.4761 38.7057C87.5849 38.6105 87.7164 38.5357 87.8705 38.4813C88.0247 38.4269 88.1969 38.3997 88.3873 38.3997H89.9105C90.0284 38.3997 90.1191 38.4247 90.1825 38.4745C90.246 38.5199 90.2823 38.5833 90.2913 38.6649C90.2959 38.7057 90.2981 38.7465 90.2981 38.7873C90.2981 38.8281 90.2981 38.8689 90.2981 38.9097V41.8609C90.2981 41.9335 90.2528 41.9697 90.1621 41.9697H89.4617C89.4028 41.9697 89.3643 41.9629 89.3461 41.9493C89.3325 41.9312 89.3257 41.9017 89.3257 41.8609V40.6165ZM88.1357 39.5557C88.1357 39.6781 88.1743 39.7756 88.2513 39.8481C88.3329 39.9207 88.4553 39.9569 88.6185 39.9569H89.3257V39.1545H88.5981C88.5075 39.1545 88.4327 39.1681 88.3737 39.1953C88.3148 39.218 88.2672 39.2497 88.2309 39.2905C88.1992 39.3313 88.1743 39.3767 88.1561 39.4265C88.1425 39.4719 88.1357 39.5149 88.1357 39.5557ZM95.8667 40.0249C96.0752 40.1065 96.2203 40.2267 96.3019 40.3853C96.3835 40.5395 96.4243 40.7004 96.4243 40.8681C96.4243 41.0313 96.3903 41.1809 96.3223 41.3169C96.2588 41.4529 96.1682 41.5708 96.0503 41.6705C95.937 41.7657 95.7987 41.8405 95.6355 41.8949C95.4768 41.9448 95.3046 41.9697 95.1187 41.9697H93.5479C93.3892 41.9697 93.2804 41.9425 93.2215 41.8881C93.1671 41.8292 93.1399 41.7408 93.1399 41.6229V38.7805C93.1399 38.6627 93.1626 38.5697 93.2079 38.5017C93.2578 38.4337 93.362 38.3997 93.5207 38.3997H95.1051C95.2638 38.3997 95.4134 38.4156 95.5539 38.4473C95.6944 38.4791 95.8168 38.5312 95.9211 38.6037C96.0299 38.6763 96.1138 38.7692 96.1727 38.8825C96.2362 38.9959 96.2679 39.1364 96.2679 39.3041C96.2679 39.4356 96.2339 39.5648 96.1659 39.6917C96.0979 39.8141 95.9982 39.9116 95.8667 39.9841V40.0249ZM95.4043 40.7933C95.4043 40.6755 95.368 40.5803 95.2955 40.5077C95.2275 40.4352 95.121 40.3989 94.9759 40.3989H94.1123V41.2013H94.9691C95.0552 41.2013 95.1255 41.1877 95.1799 41.1605C95.2388 41.1333 95.2842 41.0993 95.3159 41.0585C95.3522 41.0177 95.3748 40.9747 95.3839 40.9293C95.3975 40.8795 95.4043 40.8341 95.4043 40.7933ZM94.1123 39.7461H94.9351C95.0076 39.7461 95.0756 39.7235 95.1391 39.6781C95.2071 39.6328 95.2411 39.5557 95.2411 39.4469C95.2411 39.3699 95.2162 39.3041 95.1663 39.2497C95.1164 39.1908 95.0462 39.1613 94.9555 39.1613H94.1123V39.7461ZM98.7212 38.3113C99.2516 38.3113 99.6482 38.4451 99.9112 38.7125C100.179 38.9755 100.312 39.354 100.312 39.8481C100.312 40.0839 100.267 40.2448 100.176 40.3309C100.086 40.4171 99.961 40.4601 99.8024 40.4601H98.0616C98.0661 40.6052 98.0888 40.7253 98.1296 40.8205C98.1749 40.9157 98.2338 40.9928 98.3064 41.0517C98.3789 41.1107 98.4628 41.1515 98.558 41.1741C98.6577 41.1968 98.7642 41.2081 98.8776 41.2081C99.009 41.2081 99.1428 41.1923 99.2788 41.1605C99.4148 41.1288 99.5417 41.088 99.6596 41.0381C99.714 41.02 99.7502 41.0155 99.7684 41.0245C99.791 41.0291 99.8114 41.0495 99.8296 41.0857L100.047 41.5753C100.065 41.6161 100.068 41.6479 100.054 41.6705C100.045 41.6932 100.022 41.7159 99.986 41.7385C99.8182 41.8473 99.6233 41.9244 99.4012 41.9697C99.179 42.0196 98.9728 42.0445 98.7824 42.0445C98.1885 42.0445 97.7488 41.8972 97.4632 41.6025C97.1776 41.3079 97.0348 40.8409 97.0348 40.2017C97.0348 39.9025 97.0733 39.6373 97.1504 39.4061C97.232 39.1704 97.3453 38.9709 97.4904 38.8077C97.64 38.6445 97.8168 38.5221 98.0208 38.4405C98.2293 38.3544 98.4628 38.3113 98.7212 38.3113ZM98.7416 39.1273C98.5557 39.1273 98.4038 39.1931 98.286 39.3245C98.1681 39.456 98.1001 39.6237 98.082 39.8277H99.3536C99.3536 39.728 99.3422 39.6351 99.3196 39.5489C99.3014 39.4628 99.2697 39.3903 99.2244 39.3313C99.179 39.2679 99.1178 39.218 99.0408 39.1817C98.9637 39.1455 98.864 39.1273 98.7416 39.1273ZM102.028 43.2413C102.028 43.2912 102.019 43.3229 102.001 43.3365C101.988 43.3501 101.949 43.3569 101.886 43.3569H101.178C101.129 43.3569 101.092 43.3501 101.07 43.3365C101.047 43.3229 101.036 43.2912 101.036 43.2413V38.8077C101.036 38.7579 101.042 38.7193 101.056 38.6921C101.074 38.6604 101.113 38.6287 101.172 38.5969C101.389 38.4972 101.632 38.4269 101.899 38.3861C102.171 38.3453 102.43 38.3249 102.674 38.3249C102.996 38.3249 103.266 38.3748 103.484 38.4745C103.706 38.5697 103.883 38.7012 104.014 38.8689C104.15 39.0321 104.247 39.2271 104.306 39.4537C104.365 39.6804 104.395 39.9229 104.395 40.1813C104.395 40.4352 104.363 40.6755 104.3 40.9021C104.236 41.1243 104.139 41.3192 104.007 41.4869C103.876 41.6547 103.708 41.7884 103.504 41.8881C103.305 41.9833 103.069 42.0309 102.797 42.0309C102.661 42.0309 102.534 42.0241 102.416 42.0105C102.303 42.0015 102.173 41.9811 102.028 41.9493V43.2413ZM103.361 40.1609C103.361 39.9751 103.343 39.8187 103.307 39.6917C103.271 39.5648 103.216 39.4628 103.144 39.3857C103.076 39.3087 102.989 39.2543 102.885 39.2225C102.785 39.1908 102.672 39.1749 102.545 39.1749C102.482 39.1749 102.398 39.1817 102.294 39.1953C102.194 39.2089 102.105 39.2271 102.028 39.2497V41.1061C102.146 41.1379 102.251 41.1583 102.341 41.1673C102.436 41.1764 102.52 41.1809 102.593 41.1809C102.819 41.1809 103.003 41.1039 103.144 40.9497C103.289 40.7956 103.361 40.5327 103.361 40.1609ZM106.126 41.8337C106.126 41.8927 106.114 41.9312 106.092 41.9493C106.073 41.9629 106.033 41.9697 105.969 41.9697H105.289C105.189 41.9697 105.14 41.9244 105.14 41.8337V38.5289C105.14 38.4428 105.189 38.3997 105.289 38.3997H105.969C106.033 38.3997 106.073 38.4088 106.092 38.4269C106.114 38.4405 106.126 38.4745 106.126 38.5289V39.6917H107.397V38.5289C107.397 38.4428 107.447 38.3997 107.547 38.3997H108.227C108.29 38.3997 108.331 38.4088 108.349 38.4269C108.367 38.4405 108.376 38.4745 108.376 38.5289V41.8337C108.376 41.8927 108.367 41.9312 108.349 41.9493C108.331 41.9629 108.29 41.9697 108.227 41.9697H107.547C107.447 41.9697 107.397 41.9244 107.397 41.8337V40.4669H106.126V41.8337ZM109.692 41.9697C109.515 41.9697 109.399 41.9357 109.345 41.8677C109.291 41.7952 109.263 41.6977 109.263 41.5753V38.5289C109.263 38.4428 109.313 38.3997 109.413 38.3997H110.1C110.163 38.3997 110.204 38.4088 110.222 38.4269C110.24 38.4405 110.249 38.4745 110.249 38.5289V39.5149H111.093C111.423 39.5149 111.684 39.5625 111.875 39.6577C112.069 39.7484 112.217 39.8595 112.317 39.9909C112.416 40.1224 112.477 40.2584 112.5 40.3989C112.527 40.5349 112.541 40.6483 112.541 40.7389C112.541 40.9157 112.507 41.0789 112.439 41.2285C112.371 41.3781 112.276 41.5073 112.153 41.6161C112.035 41.7249 111.895 41.8111 111.732 41.8745C111.569 41.938 111.392 41.9697 111.201 41.9697H109.692ZM111.528 40.7253C111.528 40.5984 111.487 40.4919 111.405 40.4057C111.328 40.3151 111.21 40.2697 111.052 40.2697H110.249V41.1945H111.045C111.14 41.1945 111.219 41.1787 111.283 41.1469C111.346 41.1152 111.396 41.0767 111.433 41.0313C111.469 40.9815 111.494 40.9293 111.507 40.8749C111.521 40.8205 111.528 40.7707 111.528 40.7253ZM113.901 41.8337C113.901 41.8927 113.892 41.9312 113.874 41.9493C113.856 41.9629 113.815 41.9697 113.751 41.9697H113.071C112.972 41.9697 112.922 41.9244 112.922 41.8337V38.5289C112.922 38.4428 112.972 38.3997 113.071 38.3997H113.751C113.815 38.3997 113.856 38.4088 113.874 38.4269C113.892 38.4405 113.901 38.4745 113.901 38.5289V41.8337ZM116.114 40.7729L115.509 41.8201C115.482 41.87 115.45 41.9085 115.414 41.9357C115.382 41.9584 115.332 41.9697 115.264 41.9697H114.489C114.439 41.9697 114.408 41.9561 114.394 41.9289C114.38 41.9017 114.387 41.8655 114.414 41.8201L115.564 40.0861L114.537 38.5221C114.519 38.4995 114.512 38.4745 114.516 38.4473C114.526 38.4156 114.553 38.3997 114.598 38.3997H115.414C115.478 38.3997 115.525 38.4088 115.557 38.4269C115.593 38.4451 115.623 38.4791 115.645 38.5289L116.121 39.4061L116.604 38.5289C116.631 38.4791 116.661 38.4451 116.692 38.4269C116.724 38.4088 116.772 38.3997 116.835 38.3997H117.638C117.688 38.3997 117.715 38.4133 117.719 38.4405C117.724 38.4677 117.722 38.4927 117.712 38.5153L116.665 40.0725L117.821 41.8269C117.844 41.8632 117.851 41.8972 117.842 41.9289C117.833 41.9561 117.801 41.9697 117.746 41.9697H116.951C116.874 41.9697 116.819 41.9584 116.788 41.9357C116.76 41.9085 116.733 41.87 116.706 41.8201L116.114 40.7729ZM121.286 43.2413C121.286 43.2912 121.277 43.3229 121.259 43.3365C121.245 43.3501 121.207 43.3569 121.143 43.3569H120.436C120.386 43.3569 120.35 43.3501 120.327 43.3365C120.305 43.3229 120.293 43.2912 120.293 43.2413V38.8077C120.293 38.7579 120.3 38.7193 120.314 38.6921C120.332 38.6604 120.37 38.6287 120.429 38.5969C120.647 38.4972 120.89 38.4269 121.157 38.3861C121.429 38.3453 121.687 38.3249 121.932 38.3249C122.254 38.3249 122.524 38.3748 122.741 38.4745C122.964 38.5697 123.14 38.7012 123.272 38.8689C123.408 39.0321 123.505 39.2271 123.564 39.4537C123.623 39.6804 123.653 39.9229 123.653 40.1813C123.653 40.4352 123.621 40.6755 123.557 40.9021C123.494 41.1243 123.396 41.3192 123.265 41.4869C123.134 41.6547 122.966 41.7884 122.762 41.8881C122.562 41.9833 122.327 42.0309 122.055 42.0309C121.919 42.0309 121.792 42.0241 121.674 42.0105C121.56 42.0015 121.431 41.9811 121.286 41.9493V43.2413ZM122.619 40.1609C122.619 39.9751 122.601 39.8187 122.565 39.6917C122.528 39.5648 122.474 39.4628 122.401 39.3857C122.333 39.3087 122.247 39.2543 122.143 39.2225C122.043 39.1908 121.93 39.1749 121.803 39.1749C121.74 39.1749 121.656 39.1817 121.551 39.1953C121.452 39.2089 121.363 39.2271 121.286 39.2497V41.1061C121.404 41.1379 121.508 41.1583 121.599 41.1673C121.694 41.1764 121.778 41.1809 121.851 41.1809C122.077 41.1809 122.261 41.1039 122.401 40.9497C122.546 40.7956 122.619 40.5327 122.619 40.1609ZM125.948 38.3113C126.478 38.3113 126.875 38.4451 127.138 38.7125C127.405 38.9755 127.539 39.354 127.539 39.8481C127.539 40.0839 127.494 40.2448 127.403 40.3309C127.312 40.4171 127.188 40.4601 127.029 40.4601H125.288C125.293 40.6052 125.315 40.7253 125.356 40.8205C125.401 40.9157 125.46 40.9928 125.533 41.0517C125.605 41.1107 125.689 41.1515 125.785 41.1741C125.884 41.1968 125.991 41.2081 126.104 41.2081C126.236 41.2081 126.369 41.1923 126.505 41.1605C126.641 41.1288 126.768 41.088 126.886 41.0381C126.941 41.02 126.977 41.0155 126.995 41.0245C127.018 41.0291 127.038 41.0495 127.056 41.0857L127.274 41.5753C127.292 41.6161 127.294 41.6479 127.281 41.6705C127.271 41.6932 127.249 41.7159 127.213 41.7385C127.045 41.8473 126.85 41.9244 126.628 41.9697C126.406 42.0196 126.199 42.0445 126.009 42.0445C125.415 42.0445 124.975 41.8972 124.69 41.6025C124.404 41.3079 124.261 40.8409 124.261 40.2017C124.261 39.9025 124.3 39.6373 124.377 39.4061C124.459 39.1704 124.572 38.9709 124.717 38.8077C124.867 38.6445 125.043 38.5221 125.247 38.4405C125.456 38.3544 125.689 38.3113 125.948 38.3113ZM125.968 39.1273C125.782 39.1273 125.63 39.1931 125.513 39.3245C125.395 39.456 125.327 39.6237 125.309 39.8277H126.58C126.58 39.728 126.569 39.6351 126.546 39.5489C126.528 39.4628 126.496 39.3903 126.451 39.3313C126.406 39.2679 126.344 39.218 126.267 39.1817C126.19 39.1455 126.091 39.1273 125.968 39.1273ZM128.663 41.9697C128.505 41.9697 128.398 41.9312 128.344 41.8541C128.289 41.7725 128.262 41.6683 128.262 41.5413V38.5221C128.262 38.4405 128.31 38.3997 128.405 38.3997H129.112C129.176 38.3997 129.214 38.4088 129.228 38.4269C129.241 38.4405 129.248 38.4723 129.248 38.5221V41.1809H130.343V38.5221C130.343 38.4405 130.388 38.3997 130.479 38.3997H131.193C131.252 38.3997 131.29 38.4088 131.309 38.4269C131.327 38.4405 131.336 38.4723 131.336 38.5221V41.1809H132.403V38.5221C132.403 38.4723 132.412 38.4405 132.431 38.4269C132.449 38.4088 132.487 38.3997 132.546 38.3997H133.253C133.344 38.3997 133.389 38.4405 133.389 38.5221V41.5413C133.389 41.6683 133.362 41.7725 133.308 41.8541C133.258 41.9312 133.149 41.9697 132.981 41.9697H128.663ZM135.822 38.3113C136.353 38.3113 136.749 38.4451 137.012 38.7125C137.28 38.9755 137.414 39.354 137.414 39.8481C137.414 40.0839 137.368 40.2448 137.278 40.3309C137.187 40.4171 137.062 40.4601 136.904 40.4601H135.163C135.167 40.6052 135.19 40.7253 135.231 40.8205C135.276 40.9157 135.335 40.9928 135.408 41.0517C135.48 41.1107 135.564 41.1515 135.659 41.1741C135.759 41.1968 135.865 41.2081 135.979 41.2081C136.11 41.2081 136.244 41.1923 136.38 41.1605C136.516 41.1288 136.643 41.088 136.761 41.0381C136.815 41.02 136.851 41.0155 136.87 41.0245C136.892 41.0291 136.913 41.0495 136.931 41.0857L137.148 41.5753C137.166 41.6161 137.169 41.6479 137.155 41.6705C137.146 41.6932 137.123 41.7159 137.087 41.7385C136.919 41.8473 136.724 41.9244 136.502 41.9697C136.28 42.0196 136.074 42.0445 135.884 42.0445C135.29 42.0445 134.85 41.8972 134.564 41.6025C134.279 41.3079 134.136 40.8409 134.136 40.2017C134.136 39.9025 134.174 39.6373 134.252 39.4061C134.333 39.1704 134.446 38.9709 134.592 38.8077C134.741 38.6445 134.918 38.5221 135.122 38.4405C135.33 38.3544 135.564 38.3113 135.822 38.3113ZM135.843 39.1273C135.657 39.1273 135.505 39.1931 135.387 39.3245C135.269 39.456 135.201 39.6237 135.183 39.8277H136.455C136.455 39.728 136.443 39.6351 136.421 39.5489C136.403 39.4628 136.371 39.3903 136.326 39.3313C136.28 39.2679 136.219 39.218 136.142 39.1817C136.065 39.1455 135.965 39.1273 135.843 39.1273ZM139.123 41.8337C139.123 41.8927 139.111 41.9312 139.089 41.9493C139.071 41.9629 139.03 41.9697 138.966 41.9697H138.286C138.187 41.9697 138.137 41.9244 138.137 41.8337V38.5289C138.137 38.4428 138.187 38.3997 138.286 38.3997H138.966C139.03 38.3997 139.071 38.4088 139.089 38.4269C139.111 38.4405 139.123 38.4745 139.123 38.5289V39.6917H140.394V38.5289C140.394 38.4428 140.444 38.3997 140.544 38.3997H141.224C141.287 38.3997 141.328 38.4088 141.346 38.4269C141.365 38.4405 141.374 38.4745 141.374 38.5289V41.8337C141.374 41.8927 141.365 41.9312 141.346 41.9493C141.328 41.9629 141.287 41.9697 141.224 41.9697H140.544C140.444 41.9697 140.394 41.9244 140.394 41.8337V40.4669H139.123V41.8337ZM142.261 38.5085C142.261 38.436 142.301 38.3997 142.383 38.3997H143.111C143.165 38.3997 143.199 38.4065 143.213 38.4201C143.231 38.4337 143.24 38.4632 143.24 38.5085V40.5893H143.274C143.36 40.4443 143.43 40.3264 143.485 40.2357C143.544 40.1405 143.591 40.0635 143.627 40.0045C143.664 39.9411 143.695 39.8889 143.723 39.8481C143.75 39.8073 143.777 39.7643 143.804 39.7189C143.89 39.5875 143.988 39.4333 144.097 39.2565C144.205 39.0797 144.335 38.8689 144.484 38.6241C144.516 38.5788 144.545 38.5425 144.573 38.5153C144.6 38.4836 144.627 38.4609 144.654 38.4473C144.686 38.4292 144.72 38.4179 144.756 38.4133C144.797 38.4043 144.847 38.3997 144.906 38.3997H145.239C145.366 38.3997 145.461 38.4269 145.525 38.4813C145.588 38.5312 145.62 38.6309 145.62 38.7805V41.8609C145.62 41.9063 145.611 41.9357 145.593 41.9493C145.574 41.9629 145.543 41.9697 145.497 41.9697H144.763C144.713 41.9697 144.679 41.9652 144.661 41.9561C144.643 41.9425 144.634 41.9108 144.634 41.8609V39.8209H144.6C144.496 39.9796 144.396 40.1383 144.301 40.2969C144.21 40.4511 144.115 40.6052 144.015 40.7593C143.911 40.9225 143.806 41.088 143.702 41.2557C143.598 41.4189 143.491 41.5821 143.383 41.7453C143.319 41.8405 143.26 41.9017 143.206 41.9289C143.151 41.9561 143.07 41.9697 142.961 41.9697H142.641C142.483 41.9697 142.378 41.938 142.329 41.8745C142.283 41.8111 142.261 41.7159 142.261 41.5889V38.5085ZM146.511 38.5085C146.511 38.436 146.551 38.3997 146.633 38.3997H147.361C147.415 38.3997 147.449 38.4065 147.463 38.4201C147.481 38.4337 147.49 38.4632 147.49 38.5085V40.5893H147.524C147.61 40.4443 147.68 40.3264 147.735 40.2357C147.794 40.1405 147.841 40.0635 147.877 40.0045C147.914 39.9411 147.945 39.8889 147.973 39.8481C148 39.8073 148.027 39.7643 148.054 39.7189C148.14 39.5875 148.238 39.4333 148.347 39.2565C148.455 39.0797 148.585 38.8689 148.734 38.6241C148.766 38.5788 148.795 38.5425 148.823 38.5153C148.85 38.4836 148.877 38.4609 148.904 38.4473C148.936 38.4292 148.97 38.4179 149.006 38.4133C149.047 38.4043 149.097 38.3997 149.156 38.3997H149.489C149.616 38.3997 149.711 38.4269 149.775 38.4813C149.838 38.5312 149.87 38.6309 149.87 38.7805V41.8609C149.87 41.9063 149.861 41.9357 149.843 41.9493C149.824 41.9629 149.793 41.9697 149.747 41.9697H149.013C148.963 41.9697 148.929 41.9652 148.911 41.9561C148.893 41.9425 148.884 41.9108 148.884 41.8609V39.8209H148.85C148.746 39.9796 148.646 40.1383 148.551 40.2969C148.46 40.4511 148.365 40.6052 148.265 40.7593C148.161 40.9225 148.056 41.088 147.952 41.2557C147.848 41.4189 147.741 41.5821 147.633 41.7453C147.569 41.8405 147.51 41.9017 147.456 41.9289C147.401 41.9561 147.32 41.9697 147.211 41.9697H146.891C146.733 41.9697 146.628 41.938 146.579 41.8745C146.533 41.8111 146.511 41.7159 146.511 41.5889V38.5085ZM148.163 38.0665C148.027 38.0665 147.898 38.0461 147.775 38.0053C147.658 37.96 147.544 37.9011 147.435 37.8285C147.331 37.7515 147.234 37.6676 147.143 37.5769C147.057 37.4817 146.978 37.382 146.905 37.2777C146.896 37.2641 146.887 37.246 146.878 37.2233C146.869 37.1961 146.885 37.1644 146.925 37.1281L147.191 36.8697C147.236 36.8335 147.265 36.8221 147.279 36.8357C147.297 36.8448 147.324 36.8629 147.361 36.8901C147.506 37.0352 147.648 37.1485 147.789 37.2301C147.934 37.3117 148.072 37.3525 148.204 37.3525C148.258 37.3525 148.313 37.348 148.367 37.3389C148.426 37.3253 148.489 37.3027 148.557 37.2709C148.625 37.2347 148.7 37.1871 148.782 37.1281C148.863 37.0647 148.959 36.9808 149.067 36.8765C149.113 36.8403 149.144 36.8244 149.163 36.8289C149.181 36.8289 149.201 36.8403 149.224 36.8629L149.482 37.0873C149.528 37.1281 149.546 37.1599 149.537 37.1825C149.532 37.2052 149.523 37.2256 149.509 37.2437C149.097 37.7923 148.648 38.0665 148.163 38.0665Z" fill="black"/>
</g>
<path opacity="0.85" d="M51.3992 29.6987C51.8352 28.9389 52.1839 28.1791 52.4455 27.4193C57.4155 30.4585 60.38 33.16 60.38 33.16C57.2411 30.1208 54.8869 27.9258 52.9687 26.153C53.8406 23.7047 54.1022 21.8474 54.1022 21.8474C54.3637 21.0032 54.4509 20.4123 54.4509 20.4123C53.4046 21.5942 52.0095 22.7761 50.4401 23.8736C49.7425 23.2826 49.045 22.6917 48.4346 22.1851C47.9115 20.2434 46.9524 17.7108 45.0341 15.347C44.7726 15.0093 44.4238 14.6716 44.1622 14.3339C48.3475 13.743 51.5736 13.9118 51.6608 13.9118C51.748 13.9118 51.8352 13.9962 51.8352 13.9962C46.6036 10.1972 40.1514 7.91784 33.0888 8.00227C25.1543 8.08669 17.9173 11.0415 12.5114 15.8535C14.0808 14.6716 15.9119 13.5741 18.0045 12.8987C15.9119 13.5741 13.9936 14.5872 12.5114 15.8535C10.2443 17.8796 8.23892 20.2434 6.66946 22.8605C6.66946 22.8605 6.66946 22.9449 6.58226 22.9449C6.58226 22.9449 6.58226 23.0294 6.49507 23.0294C6.23349 23.4515 6.05911 23.8736 5.79753 24.2957C7.54138 23.2826 9.80838 22.5228 12.337 21.9319C11.9882 23.1982 11.465 26.5751 12.337 30.3741C10.5059 29.9519 9.28523 29.4454 9.28523 29.4454C10.4187 30.2896 11.5522 31.1339 12.7729 31.8936C12.7729 31.9781 12.7729 31.9781 12.7729 32.0625C12.8601 32.3158 12.9473 32.4846 13.0345 32.7379C5.09999 31.4715 -0.21875 29.1077 -0.21875 29.1077C7.36699 32.7379 11.2907 34.5107 14.604 35.6926C16.0862 37.972 18.2661 40.3358 21.3178 41.9399C17.4813 43.7971 14.4296 44.5569 14.4296 44.5569H14.5168H14.4296C17.4813 45.4856 20.7946 46.0765 24.1951 45.9921C35.9661 45.9077 46.1676 39.4072 51.2248 29.9519C50.4401 31.3027 49.3938 32.7379 48.0859 33.9198C49.481 32.6534 50.5273 31.1339 51.3992 29.6987ZM15.8247 21.4253C16.3478 21.3409 16.871 21.2565 17.3941 21.2565C16.871 21.2565 16.3478 21.3409 15.8247 21.4253ZM46.0805 26.4062C45.9933 26.4062 45.9933 26.4907 45.9061 26.4907C45.9933 26.4062 45.9933 26.4062 46.0805 26.4062ZM24.4567 12.3078C24.1079 12.3078 23.7592 12.3078 23.4104 12.3078C23.672 12.3078 24.0208 12.2234 24.4567 12.3078C24.3695 12.3078 24.3695 12.3078 24.4567 12.3078ZM25.6774 12.3078C25.7646 12.3078 25.8518 12.3078 25.939 12.3078C25.6774 12.3078 25.4158 12.3078 25.1543 12.3078C25.3286 12.3078 25.503 12.3078 25.6774 12.3078ZM32.304 30.8806C28.1188 31.4715 25.5902 31.6404 23.4104 31.7248C23.3232 31.3027 23.236 30.8806 23.236 30.4585C23.1488 25.8153 25.2415 22.8605 27.0725 21.0877C28.1188 21.1721 29.0779 21.3409 30.037 21.5098C32.74 22.0163 34.7454 22.4384 36.4021 22.8605C36.9252 26.0685 36.1405 28.6856 35.1814 30.4585C34.2223 30.5429 33.176 30.7962 32.304 30.8806ZM29.9498 39.1539H29.8627C29.8627 39.1539 29.8627 39.1539 29.9498 39.1539ZM29.0779 39.1539H28.9907C29.0779 39.0695 29.0779 39.0695 29.0779 39.1539ZM45.8189 26.4907C45.2957 26.7439 44.8598 26.9972 44.3366 27.166C44.8598 26.9972 45.2957 26.7439 45.8189 26.4907ZM22.8001 12.3078C22.1897 12.3078 21.6666 12.3922 21.0562 12.3922C20.7946 12.3922 20.6203 12.3922 20.4459 12.4766C20.6203 12.4766 20.8818 12.3922 21.0562 12.3922C21.6666 12.3078 22.1897 12.3078 22.8001 12.3078ZM33.2632 39.1539H33.3504C33.3504 39.1539 33.3504 39.1539 33.2632 39.1539ZM36.9252 38.7318C36.9252 38.7318 36.838 38.7318 36.9252 38.7318C36.838 38.7318 36.9252 38.7318 36.9252 38.7318ZM40.6745 37.8032C40.7617 37.8032 40.9361 37.7188 41.0233 37.7188C40.9361 37.7188 40.7617 37.7188 40.6745 37.8032ZM48.0859 25.3087C48.1731 25.2243 48.2603 25.2243 48.3475 25.1399C48.2603 25.2243 48.1731 25.2243 48.0859 25.3087ZM18.5276 12.8143C18.3532 12.8987 18.1789 12.8987 18.0045 12.9832C18.1789 12.8987 18.3532 12.8143 18.5276 12.8143ZM20.1843 12.4766C20.0099 12.4766 19.9227 12.4766 19.7483 12.561C19.9227 12.4766 20.0099 12.4766 20.1843 12.4766ZM19.5739 12.561C19.3996 12.561 19.3124 12.6455 19.138 12.6455C19.3124 12.6455 19.4867 12.561 19.5739 12.561ZM19.0508 12.6455C18.8764 12.6455 18.702 12.7299 18.5276 12.7299C18.702 12.7299 18.8764 12.7299 19.0508 12.6455ZM13.9064 21.6786C13.3833 21.763 12.9473 21.8475 12.4242 22.0163C12.9473 21.9319 13.4705 21.763 13.9064 21.6786ZM15.6503 21.4253C15.1271 21.5098 14.604 21.5942 14.0808 21.6786C14.604 21.5942 15.1271 21.5098 15.6503 21.4253ZM42.9415 37.0434C43.2031 36.959 43.4647 36.8745 43.7263 36.7057C43.9878 36.6213 44.2494 36.4524 44.511 36.368C44.2494 36.4524 43.9878 36.6213 43.7263 36.7057C43.4647 36.7901 43.2031 36.8745 42.9415 37.0434ZM41.3721 37.5499C41.5464 37.4655 41.7208 37.4655 41.8952 37.3811C41.7208 37.4655 41.5464 37.5499 41.3721 37.5499ZM42.1568 37.2967C42.3312 37.2122 42.5928 37.1278 42.7671 37.0434C42.5056 37.1278 42.3312 37.2122 42.1568 37.2967ZM45.4701 35.8615C45.6445 35.7771 45.8189 35.6926 45.9933 35.5238C45.8189 35.6082 45.6445 35.7771 45.4701 35.8615ZM44.7726 36.1992C44.9469 36.1147 45.1213 36.0303 45.2957 35.9459C45.0341 36.0303 44.8598 36.1147 44.7726 36.1992ZM47.4755 34.4263C47.6499 34.2575 47.8243 34.173 47.9987 34.0042C47.8243 34.0886 47.6499 34.2575 47.4755 34.4263ZM46.1676 35.4394C46.6036 35.1861 47.0396 34.8484 47.3883 34.5107C47.0396 34.8484 46.6036 35.1017 46.1676 35.4394Z" fill="white"/>
<path opacity="0.82" d="M22.1015 31.7245C20.8808 25.9838 23.7582 22.6913 26.1996 20.9185C21.7527 20.6652 16.7828 21.0029 12.5103 22.016C12.0744 23.4511 11.464 27.6722 13.0335 32.231C14.3414 36.03 17.7419 40.842 23.671 43.037C29.6001 45.232 34.3085 43.8812 34.3085 43.8812C34.3085 43.8812 23.8454 40.2511 22.1015 31.7245Z" fill="url(#paint0_linear_971_245)"/>
<path opacity="0.63" d="M34.3093 43.8814C34.3093 43.8814 18.3531 40.2513 16.5221 27.0815C16.5221 27.0815 15.9117 21.9318 19.3122 18.7237C19.3122 18.7237 24.7182 17.9639 30.1241 18.977C30.1241 18.977 23.2359 21.9318 23.3231 30.4584C23.7591 38.394 34.3093 43.8814 34.3093 43.8814Z" fill="url(#paint1_linear_971_245)"/>
<path opacity="0.63" d="M38.0581 15.6003H38.1453C44.8591 13.4898 51.7473 13.9119 51.7473 13.9119C35.8783 6.73603 26.4615 11.126 24.4561 12.2234C29.9492 12.3923 34.3088 13.743 38.0581 15.6003Z" fill="url(#paint2_linear_971_245)"/>
<path opacity="0.63" d="M30.1223 21.4259C37.6209 22.7767 39.5391 23.5365 43.7243 25.2249C47.9096 26.9133 51.4845 29.6993 51.4845 29.6993C45.9041 21.3415 36.6617 12.4772 23.5829 13.7435C13.8173 14.7566 8.67297 20.244 6.66754 22.9455C6.40597 23.3676 6.14439 23.8741 5.88281 24.3807C11.7247 21.1726 22.711 20.0752 30.1223 21.4259Z" fill="url(#paint3_linear_971_245)"/>
<path opacity="0.63" d="M33.0876 19.4838C49.3054 23.0296 60.466 33.1602 60.466 33.1602C50.5261 23.5361 48.2591 21.7632 42.8531 18.3019C37.4472 14.8406 30.9078 11.6326 21.1422 12.3924C17.6545 12.6457 14.7771 14.1653 12.5101 15.9381C10.1559 18.0487 8.15052 20.4969 6.58105 23.1984C8.06333 22.1853 17.5673 16.107 33.0876 19.4838Z" fill="url(#paint4_linear_971_245)"/>
<path opacity="0.82" d="M32.9997 13.5741C36.4874 9.60628 51.9205 13.9962 51.9205 13.9962C46.6889 10.1972 40.2367 7.91784 33.1741 8.00227C25.2396 8.08669 18.0026 11.0415 12.5967 15.8535C14.8637 14.0806 17.741 12.6455 21.1415 12.3922C25.7627 12.0545 29.5992 12.561 32.9997 13.5741Z" fill="url(#paint5_linear_971_245)"/>
<path opacity="0.75" d="M9.45801 29.6141C9.45801 29.6141 13.7304 31.1337 18.2644 31.4714C22.7985 31.8091 24.8039 31.9779 32.3896 30.8804C39.9754 29.8674 50.1769 25.3086 54.5365 20.4121C54.5365 20.4121 53.0542 30.796 41.1089 36.1146C29.0763 41.3487 17.4797 35.7769 9.45801 29.6141Z" fill="url(#paint6_linear_971_245)"/>
<path opacity="0.63" d="M-0.132812 29.1079C-0.132812 29.1079 13.6436 35.1863 30.2102 33.5822C46.7767 31.9782 53.6649 22.3541 54.1881 21.7632C54.1881 21.7632 52.793 32.9069 43.8994 36.6214C34.9186 40.336 27.6816 39.3229 21.4037 37.6345C15.0387 36.1149 12.4229 35.1863 -0.132812 29.1079Z" fill="url(#paint7_linear_971_245)"/>
<path opacity="0.63" d="M21.0547 10.8724C21.0547 10.8724 37.3597 9.35284 43.4631 21.2563C43.4631 21.2563 45.7302 25.9839 43.5503 30.0362C43.5503 30.0362 38.6676 32.4 33.2616 33.1598C33.2616 33.1598 38.842 28.1789 35.8774 20.2433C32.8257 12.8141 21.0547 10.8724 21.0547 10.8724Z" fill="url(#paint8_linear_971_245)"/>
<path opacity="0.79" d="M26.7228 38.8162H26.6357C20.9681 42.9529 14.4287 44.4725 14.4287 44.4725C31.78 46.4142 39.1914 39.4072 40.7608 37.7188C35.5293 39.4072 30.9081 39.4072 26.7228 38.8162Z" fill="url(#paint9_linear_971_245)"/>
<path opacity="0.82" d="M36.6621 18.6393C39.7139 23.7046 38.0572 27.6725 36.3134 30.1207C40.5858 29.0232 45.207 27.1659 48.9563 24.8865C48.8691 23.3669 48.0843 19.2303 45.1198 15.4313C42.6784 12.2233 37.7956 8.76197 31.4306 8.5087C25.0655 8.17102 21.0547 10.8725 21.0547 10.8725C21.0547 10.8725 32.1281 11.1258 36.6621 18.6393Z" fill="url(#paint10_linear_971_245)"/>
<path opacity="0.85" d="M51.3111 29.9517C49.7417 32.5687 47.3875 35.2702 43.8126 36.7054C39.5401 38.4783 35.7037 39.1536 32.1288 39.2381C30.2105 43.7968 15.9982 44.5566 14.4287 44.5566C17.4804 45.4853 20.7938 46.0762 24.1943 45.9918C36.0524 45.9074 46.254 39.4069 51.3111 29.9517Z" fill="url(#paint11_linear_971_245)"/>
</g>
<defs>
<linearGradient id="paint0_linear_971_245" x1="11.9975" y1="32.5491" x2="34.3132" y2="32.5491" gradientUnits="userSpaceOnUse">
<stop stop-color="#F26522"/>
<stop offset="1" stop-color="#FFF200"/>
</linearGradient>
<linearGradient id="paint1_linear_971_245" x1="21.206" y1="8.15115" x2="29.6432" y2="66.7589" gradientUnits="userSpaceOnUse">
<stop stop-color="#F26522"/>
<stop offset="0.9879" stop-color="#FFF200"/>
</linearGradient>
<linearGradient id="paint2_linear_971_245" x1="-6.31355" y1="7.26324" x2="49.899" y2="14.7837" gradientUnits="userSpaceOnUse">
<stop stop-color="#F26522"/>
<stop offset="1" stop-color="#FFDD00"/>
</linearGradient>
<linearGradient id="paint3_linear_971_245" x1="16.8442" y1="14.7952" x2="40.8232" y2="39.5612" gradientUnits="userSpaceOnUse">
<stop stop-color="#F26522"/>
<stop offset="1" stop-color="#FFF200"/>
</linearGradient>
<linearGradient id="paint4_linear_971_245" x1="12.8339" y1="11.5774" x2="41.9743" y2="35.0352" gradientUnits="userSpaceOnUse">
<stop stop-color="#F26522"/>
<stop offset="1" stop-color="#FFC20E"/>
</linearGradient>
<linearGradient id="paint5_linear_971_245" x1="15.7114" y1="3.11222" x2="49.393" y2="28.7991" gradientUnits="userSpaceOnUse">
<stop stop-color="#F26522"/>
<stop offset="1" stop-color="#FFF200"/>
</linearGradient>
<linearGradient id="paint6_linear_971_245" x1="41.2193" y1="33.7645" x2="23.1185" y2="15.5044" gradientUnits="userSpaceOnUse">
<stop stop-color="#008340"/>
<stop offset="1" stop-color="#8DC63F"/>
</linearGradient>
<linearGradient id="paint7_linear_971_245" x1="48.31" y1="36.7289" x2="5.5741" y2="12.6533" gradientUnits="userSpaceOnUse">
<stop stop-color="#009444"/>
<stop offset="1" stop-color="#8DC63F"/>
</linearGradient>
<linearGradient id="paint8_linear_971_245" x1="43.2257" y1="21.7047" x2="8.72712" y2="22.453" gradientUnits="userSpaceOnUse">
<stop stop-color="#009D48"/>
<stop offset="1" stop-color="#8DC63F"/>
</linearGradient>
<linearGradient id="paint9_linear_971_245" x1="21.1928" y1="39.6242" x2="34.6167" y2="43.0527" gradientUnits="userSpaceOnUse">
<stop stop-color="#39B54A"/>
<stop offset="1" stop-color="#8DC63F"/>
</linearGradient>
<linearGradient id="paint10_linear_971_245" x1="52.7637" y1="6.54336" x2="19.1112" y2="29.3946" gradientUnits="userSpaceOnUse">
<stop stop-color="#009D48"/>
<stop offset="1" stop-color="#8DC63F"/>
</linearGradient>
<linearGradient id="paint11_linear_971_245" x1="32.0782" y1="37.0245" x2="43.3266" y2="40.3011" gradientUnits="userSpaceOnUse">
<stop stop-color="#40AE49"/>
<stop offset="0.3191" stop-color="#45AF49"/>
<stop offset="0.5411" stop-color="#53B248"/>
<stop offset="0.7336" stop-color="#66B845"/>
<stop offset="0.9083" stop-color="#7EC042"/>
<stop offset="1" stop-color="#8DC63F"/>
</linearGradient>
<clipPath id="clip0_971_245">
<rect width="156" height="52" fill="white"/>
</clipPath>
<clipPath id="clip1_971_245">
<rect width="93" height="30" fill="white" transform="translate(62 14)"/>
</clipPath>
</defs>
</svg>
