<svg width="933" height="305" viewBox="0 0 933 305" fill="none" xmlns="http://www.w3.org/2000/svg">
<g clip-path="url(#clip0_2_2)">
<path fill-rule="evenodd" clip-rule="evenodd" d="M0 257.009L145.395 0L97.0337 256.699L48.6729 304.985L0 257.009ZM145.395 0L290.789 257.009L242.116 304.985L193.755 256.699L145.395 0ZM145.394 208.724L193.755 256.7L145.394 304.367L97.0336 256.7L145.394 208.724ZM418.295 100.394C411.618 105.469 403.409 108.16 394.998 108.029C388.407 107.622 382.062 105.393 376.683 101.593C371.303 97.7935 367.103 92.5751 364.559 86.5292C362.015 80.4833 361.229 73.8513 362.289 67.3848C363.35 60.9183 366.214 54.8754 370.558 49.9409C373.447 46.9014 376.951 44.5028 380.841 42.9024C384.73 41.302 388.917 40.5362 393.126 40.6552C400.968 40.5673 408.654 42.8331 415.175 47.1553L422.559 34.4647C414.349 27.6263 403.833 24.1247 393.126 24.6632C386.437 24.3058 379.746 25.3524 373.492 27.7347C367.237 30.1171 361.56 33.7815 356.83 38.4886C348.054 48.1778 343.396 60.8587 343.83 73.8776C343.455 80.4892 344.473 87.1058 346.819 93.3054C349.164 99.5051 352.786 105.152 357.454 109.886C362.251 114.48 367.948 118.05 374.19 120.375C380.433 122.7 387.09 123.73 393.75 123.402C405.093 124.009 416.244 120.321 424.951 113.084L418.295 100.394ZM484.648 104.933C479.594 108.82 473.362 110.893 466.968 110.814C462.585 111.258 458.199 110.002 454.729 107.309C451.259 104.617 448.973 100.696 448.351 96.3697H493.28C493.97 93.5333 494.284 90.62 494.216 87.703C494.278 83.8604 493.544 80.0462 492.059 76.4967C490.574 72.9471 488.371 69.7379 485.584 67.068C479.973 61.7985 472.51 58.9109 464.784 59.0204C460.432 58.7855 456.08 59.4577 452.006 60.9933C447.932 62.5289 444.228 64.894 441.132 67.9364C438.036 70.9788 435.616 74.6308 434.03 78.6573C432.443 82.6837 431.724 86.9953 431.919 91.3142C431.683 95.6208 432.357 99.9288 433.897 103.962C435.437 107.995 437.81 111.665 440.863 114.735C444.119 117.81 447.979 120.185 452.202 121.712C456.426 123.239 460.921 123.884 465.408 123.608C473.932 124.09 482.326 121.363 488.912 115.973L484.648 104.933ZM463.848 72.33C465.675 72.1647 467.517 72.3913 469.248 72.9944C470.98 73.5975 472.56 74.5632 473.882 75.8257C475.203 77.0882 476.236 78.6179 476.909 80.3112C477.583 82.0046 477.881 83.8219 477.784 85.6397H447.415C447.861 81.7324 449.83 78.1529 452.9 75.666C455.971 73.1791 459.9 71.9819 463.848 72.33ZM509.4 122.473H521.153C524.691 122.473 527.711 122.694 530.145 122.872C531.79 122.992 533.167 123.092 534.257 123.092C554.017 123.092 563.689 117.005 563.689 104.314C563.727 100.764 562.407 97.3306 559.995 94.7075C557.582 92.0844 554.257 90.4664 550.689 90.1794C553.947 89.6128 556.893 87.9064 558.992 85.3699C561.091 82.8334 562.204 79.6348 562.129 76.354C562.129 66.0365 552.769 60.3617 533.945 60.3617C529.337 60.3617 522.915 60.5777 517.658 60.7545C514.016 60.877 510.933 60.9807 509.4 60.9807V122.473ZM535.193 96.0602C543.201 96.0602 546.945 98.5364 546.945 103.489C546.945 108.441 542.889 110.505 535.713 110.505L525.313 109.886V96.0602H535.193ZM535.193 72.6396C541.953 72.6396 545.593 74.8063 545.593 79.4491C545.593 84.092 541.537 86.465 535.921 86.465H525.521V72.9491H535.921L535.193 72.6396ZM630.355 104.933C625.421 108.819 619.286 110.897 612.986 110.814C608.568 111.264 604.144 110.018 600.623 107.331C597.102 104.645 594.753 100.722 594.058 96.3697H638.987C639.831 93.562 640.148 90.6244 639.923 87.703C640.038 83.8812 639.358 80.0769 637.927 76.5269C636.495 72.9768 634.343 69.7569 631.603 67.068C625.98 61.8172 618.524 58.9326 610.802 59.0204C606.392 58.8272 601.989 59.5438 597.872 61.1243C593.755 62.7048 590.013 65.1151 586.882 68.2031C580.973 74.4526 577.763 82.7474 577.938 91.3142C577.742 95.6434 578.465 99.965 580.059 104C581.654 108.034 584.084 111.692 587.194 114.735C590.405 117.781 594.214 120.14 598.382 121.667C602.55 123.193 606.99 123.854 611.426 123.608C620.046 124.087 628.536 121.366 635.243 115.973L630.355 104.933ZM609.554 72.33C611.403 72.1348 613.272 72.3383 615.033 72.9264C616.795 73.5145 618.408 74.4734 619.761 75.7375C621.114 77.0016 622.176 78.5407 622.873 80.2498C623.571 81.959 623.888 83.7977 623.802 85.6397H593.434C593.59 83.7076 594.134 81.8258 595.033 80.105C595.932 78.3843 597.169 76.8593 598.671 75.6194C600.172 74.3795 601.909 73.4497 603.778 72.8848C605.647 72.32 607.611 72.1314 609.554 72.33ZM671.227 149.918V121.029C675.811 123.014 680.792 123.931 685.788 123.711C690.198 123.904 694.601 123.188 698.718 121.607C702.835 120.027 706.577 117.617 709.708 114.529C715.657 107.932 718.854 99.3379 718.652 90.489C718.981 82.2423 716.242 74.1636 710.956 67.7903C708.382 64.8707 705.171 62.5724 701.566 61.0705C697.962 59.5686 694.059 58.9027 690.156 59.1237C683.004 58.9778 676.086 61.649 670.915 66.5523V60.6712H655.107V149.918H671.227ZM685.476 73.8776C687.713 73.7828 689.945 74.1606 692.024 74.9859C694.103 75.8113 695.981 77.0654 697.535 78.6651C699.088 80.2649 700.281 82.1739 701.035 84.2656C701.789 86.3573 702.087 88.5842 701.908 90.7985C702.115 93.1966 701.808 95.6108 701.005 97.8823C700.203 100.154 698.924 102.231 697.253 103.976C695.583 105.721 693.558 107.095 691.313 108.007C689.067 108.919 686.652 109.348 684.227 109.267C679.617 109.35 675.087 108.056 671.227 105.552V80.6872C672.948 78.5786 675.118 76.8743 677.582 75.6969C680.045 74.5195 682.741 73.8982 685.476 73.8776ZM794.366 122.473V60.5683H778.557V83.9889H751.205V60.5683H735.397V122.473H751.205V98.8461H778.557V122.473H794.366ZM819.43 76.6635C824.507 74.0051 830.125 72.5233 835.862 72.33C844.911 72.33 847.927 77.2823 847.615 88.0125C843.312 85.4791 838.367 84.2259 833.366 84.4017C820.054 84.4017 810.798 91.108 810.798 104.314C810.638 106.866 811.036 109.422 811.964 111.808C812.892 114.193 814.328 116.351 816.175 118.134C818.022 119.917 820.236 121.283 822.664 122.139C825.093 122.995 827.679 123.32 830.246 123.092C833.731 123.469 837.254 122.934 840.465 121.54C843.677 120.146 846.464 117.942 848.551 115.148V122.473H862.487V84.7112C862.487 67.7905 855.415 59.1237 837.422 59.1237C829.763 59.0139 822.228 61.0525 815.686 65.0047L819.43 76.6635ZM835.55 109.886C830.246 109.886 826.606 107.1 826.606 102.56C826.606 98.0206 830.87 94.8221 836.486 94.8221C840.444 94.5549 844.374 95.6481 847.615 97.9176V104.314C846.231 106.167 844.403 107.648 842.296 108.621C840.189 109.594 837.87 110.029 835.55 109.886ZM911.784 60.6712C890.983 60.6712 880.583 69.5442 880.583 82.5443C880.457 86.4118 881.566 90.22 883.751 93.4254C885.936 96.6307 889.086 99.0696 892.751 100.394L876.319 122.473H894.623L907.312 103.798H916.256V122.473H933V60.5683L911.784 60.6712ZM897.847 83.7826C897.937 82.3884 898.311 81.0265 898.947 79.7801C899.583 78.5336 900.468 77.4285 901.547 76.5313C902.627 75.6341 903.879 74.9635 905.227 74.5605C906.575 74.1576 907.992 74.0306 909.392 74.1871H916.464V92.0365H908.143C905.663 92.2977 903.18 91.5771 901.232 90.0314C899.285 88.4858 898.031 86.2403 897.743 83.7826H897.847ZM367.436 203.564V251.438L350.588 251.85V158.064H367.02V202.636L404.461 158.064H424.325L385.325 201.707L426.925 251.85H406.125L367.436 203.564ZM447.74 251.014C443.592 249.488 439.8 247.14 436.597 244.112C430.778 237.923 427.542 229.774 427.542 221.31C427.542 212.847 430.778 204.698 436.597 198.509C443.27 192.78 451.798 189.628 460.622 189.628C469.446 189.628 477.974 192.78 484.647 198.509C490.583 204.639 493.898 212.81 493.898 221.31C493.898 229.811 490.583 237.982 484.647 244.112C481.479 247.129 477.723 249.473 473.61 250.998C469.496 252.524 465.112 253.2 460.726 252.985C456.307 253.21 451.889 252.54 447.74 251.014ZM445.011 214.73C444.218 216.831 443.868 219.07 443.982 221.31C443.868 223.551 444.218 225.79 445.011 227.891C445.804 229.991 447.023 231.908 448.592 233.523C450.162 235.138 452.048 236.416 454.135 237.279C456.222 238.142 458.465 238.572 460.726 238.541C462.978 238.591 465.216 238.172 467.295 237.311C469.374 236.45 471.248 235.167 472.797 233.543C474.345 231.92 475.533 229.992 476.284 227.885C477.036 225.778 477.333 223.538 477.158 221.31C477.317 219.086 477.008 216.853 476.251 214.753C475.494 212.653 474.305 210.732 472.76 209.112C471.215 207.492 469.348 206.208 467.276 205.342C465.204 204.475 462.974 204.046 460.726 204.08C458.465 204.049 456.222 204.478 454.135 205.341C452.048 206.204 450.162 207.482 448.592 209.097C447.023 210.712 445.804 212.629 445.011 214.73ZM523.023 214.501V251.438H506.903V191.183H521.151L541.951 216.358L561.504 191.183H575.128V251.438H559.632V214.501L541.639 237.302L523.023 214.501ZM650.113 191.183V251.438H634.305V205.628H608.305V251.438H592.808V191.183H650.113ZM687.97 202.532C682.47 202.727 677.077 204.1 672.162 206.556L668.626 195.413C675.198 191.543 682.719 189.544 690.362 189.635C707.418 189.635 714.594 197.89 714.594 214.81V251.438H700.346V244.731C698.276 247.42 695.543 249.535 692.41 250.872C689.277 252.21 685.849 252.724 682.458 252.366C679.949 252.563 677.426 252.223 675.06 251.369C672.695 250.514 670.542 249.166 668.747 247.415C666.952 245.664 665.558 243.551 664.657 241.219C663.757 238.887 663.373 236.39 663.53 233.898C663.428 231.102 663.944 228.318 665.041 225.741C666.137 223.164 667.789 220.856 669.879 218.979C671.97 217.101 674.449 215.7 677.143 214.873C679.836 214.046 682.68 213.813 685.474 214.191C690.443 213.942 695.352 215.359 699.41 218.215C699.722 207.485 696.706 202.532 687.97 202.532ZM687.499 239.487C687.552 239.482 687.605 239.476 687.658 239.469H687.242C687.328 239.476 687.414 239.482 687.499 239.487ZM684.474 239.193C685.453 239.49 686.482 239.59 687.499 239.487C689.694 239.616 691.886 239.19 693.872 238.249C695.936 237.271 697.702 235.77 698.994 233.898V227.81C696.005 225.593 692.32 224.496 688.594 224.715C683.29 224.715 679.026 227.501 679.026 232.041C679.047 233.109 679.294 234.161 679.751 235.128C680.207 236.096 680.864 236.958 681.677 237.658C682.491 238.359 683.444 238.881 684.474 239.193ZM787.812 191.183V251.438H772.419V228.429H745.795V251.438H730.195V191.183H745.795V213.882H772.315V191.183H787.812ZM849.173 251.438V213.263L820.988 251.438H805.18V191.183H820.988V229.358L849.173 191.183H864.981V251.438H849.173ZM881.829 212.747C881.829 199.747 891.398 191.183 912.198 191.183H932.062V251.438H916.566V233.279H907.934L895.246 251.438H877.253L893.686 229.977C890.146 228.688 887.101 226.335 884.976 223.246C882.85 220.157 881.75 216.486 881.829 212.747ZM901.885 207.016C899.785 208.733 898.447 211.198 898.158 213.882H897.741C897.858 215.113 898.221 216.309 898.81 217.399C899.398 218.49 900.201 219.452 901.17 220.231C902.138 221.009 903.254 221.588 904.451 221.933C905.649 222.278 906.903 222.382 908.142 222.239H916.462V204.699H909.39C906.679 204.468 903.984 205.3 901.885 207.016Z" fill="#003D82"/>
</g>
<defs>
<clipPath id="clip0_2_2">
<rect width="933" height="305" fill="white"/>
</clipPath>
</defs>
</svg>
